<?xml version="1.0" encoding="UTF-8"?>
<svg xmlns="http://www.w3.org/2000/svg" xmlns:xlink="http://www.w3.org/1999/xlink" width="466.666667" height="254.666667" viewBox="0 0 466.666667 254.666667" version="1.1">
<g id="surface1">
<path style="fill-rule:nonzero;fill:rgb(69.803923%,85.09804%,100%);fill-opacity:1;stroke-width:1;stroke-linecap:butt;stroke-linejoin:round;stroke:rgb(0%,0%,0%);stroke-opacity:1;stroke-miterlimit:10;" d="M 65.172852 115.499023 L 90.171875 115.499023 L 90.171875 140.500977 L 65.172852 140.500977 Z M 65.172852 115.499023 " transform="matrix(1.333333,0,0,1.333333,-34.666667,-26.666667)"/>
<path style=" stroke:none;fill-rule:nonzero;fill:rgb(0%,0%,0%);fill-opacity:1;" d="M 72.625 144.832031 L 72.625 143.769531 L 69.417969 143.769531 L 69.417969 140.582031 L 68.375 140.582031 L 68.375 143.769531 L 65.167969 143.769531 L 65.167969 144.832031 L 68.375 144.832031 L 68.375 148.019531 L 69.417969 148.019531 L 69.417969 144.832031 Z M 72.625 144.832031 "/>
<path style="fill-rule:nonzero;fill:rgb(69.803923%,85.09804%,100%);fill-opacity:1;stroke-width:1;stroke-linecap:butt;stroke-linejoin:round;stroke:rgb(0%,0%,0%);stroke-opacity:1;stroke-miterlimit:10;" d="M 95.172852 115.499023 L 120.171875 115.499023 L 120.171875 140.500977 L 95.172852 140.500977 Z M 95.172852 115.499023 " transform="matrix(1.333333,0,0,1.333333,-34.666667,-26.666667)"/>
<path style=" stroke:none;fill-rule:nonzero;fill:rgb(0%,0%,0%);fill-opacity:1;" d="M 112.625 144.832031 L 112.625 143.769531 L 109.417969 143.769531 L 109.417969 140.582031 L 108.375 140.582031 L 108.375 143.769531 L 105.167969 143.769531 L 105.167969 144.832031 L 108.375 144.832031 L 108.375 148.019531 L 109.417969 148.019531 L 109.417969 144.832031 Z M 112.625 144.832031 "/>
<path style="fill-rule:nonzero;fill:rgb(69.803923%,85.09804%,100%);fill-opacity:1;stroke-width:1;stroke-linecap:butt;stroke-linejoin:round;stroke:rgb(0%,0%,0%);stroke-opacity:1;stroke-miterlimit:10;" d="M 124.671875 115.499023 L 149.670898 115.499023 L 149.670898 140.500977 L 124.671875 140.500977 Z M 124.671875 115.499023 " transform="matrix(1.333333,0,0,1.333333,-34.666667,-26.666667)"/>
<path style=" stroke:none;fill-rule:nonzero;fill:rgb(0%,0%,0%);fill-opacity:1;" d="M 148.269531 144.542969 C 148.269531 143.667969 148.355469 143.519531 149.125 143.042969 C 150.230469 142.375 150.5625 141.875 150.5625 141.0625 C 150.5625 139.917969 149.644531 139.0625 148.125 139.0625 C 146.792969 139.0625 145.917969 139.8125 145.917969 140.8125 C 145.917969 141.332031 146.230469 141.75 146.707031 141.75 C 147.082031 141.75 147.480469 141.394531 147.480469 140.9375 C 147.480469 140.6875 147.417969 140.5625 147.230469 140.332031 C 147.082031 140.167969 147.042969 140.105469 147.042969 139.980469 C 147.042969 139.6875 147.332031 139.5 147.769531 139.5 C 148.417969 139.5 148.769531 140.082031 148.769531 141.0625 C 148.769531 142.125 147.894531 142.894531 147.875 144 C 147.875 144.144531 147.875 144.25 147.894531 144.542969 Z M 149.105469 146.480469 C 149.105469 145.9375 148.644531 145.457031 148.105469 145.457031 C 147.542969 145.457031 147.082031 145.917969 147.082031 146.480469 C 147.082031 147.042969 147.519531 147.480469 148.105469 147.480469 C 148.667969 147.480469 149.105469 147.042969 149.105469 146.480469 Z M 149.105469 146.480469 "/>
<path style="fill-rule:nonzero;fill:rgb(69.803923%,85.09804%,100%);fill-opacity:1;stroke-width:1;stroke-linecap:butt;stroke-linejoin:round;stroke:rgb(0%,0%,0%);stroke-opacity:1;stroke-miterlimit:10;" d="M 155.172852 115.499023 L 180.171875 115.499023 L 180.171875 140.500977 L 155.172852 140.500977 Z M 155.172852 115.499023 " transform="matrix(1.333333,0,0,1.333333,-34.666667,-26.666667)"/>
<path style=" stroke:none;fill-rule:nonzero;fill:rgb(0%,0%,0%);fill-opacity:1;" d="M 188.9375 144.542969 C 188.9375 143.667969 189.019531 143.519531 189.792969 143.042969 C 190.894531 142.375 191.230469 141.875 191.230469 141.0625 C 191.230469 139.917969 190.3125 139.0625 188.792969 139.0625 C 187.457031 139.0625 186.582031 139.8125 186.582031 140.8125 C 186.582031 141.332031 186.894531 141.75 187.375 141.75 C 187.75 141.75 188.144531 141.394531 188.144531 140.9375 C 188.144531 140.6875 188.082031 140.5625 187.894531 140.332031 C 187.75 140.167969 187.707031 140.105469 187.707031 139.980469 C 187.707031 139.6875 188 139.5 188.4375 139.5 C 189.082031 139.5 189.4375 140.082031 189.4375 141.0625 C 189.4375 142.125 188.5625 142.894531 188.542969 144 C 188.542969 144.144531 188.542969 144.25 188.5625 144.542969 Z M 189.769531 146.480469 C 189.769531 145.9375 189.3125 145.457031 188.769531 145.457031 C 188.207031 145.457031 187.75 145.917969 187.75 146.480469 C 187.75 147.042969 188.1875 147.480469 188.769531 147.480469 C 189.332031 147.480469 189.769531 147.042969 189.769531 146.480469 Z M 189.769531 146.480469 "/>
<path style="fill-rule:nonzero;fill:rgb(69.803923%,85.09804%,100%);fill-opacity:1;stroke-width:1;stroke-linecap:butt;stroke-linejoin:round;stroke:rgb(0%,0%,0%);stroke-opacity:1;stroke-miterlimit:10;" d="M 65.172852 85.499023 L 90.171875 85.499023 L 90.171875 110.500977 L 65.172852 110.500977 Z M 65.172852 85.499023 " transform="matrix(1.333333,0,0,1.333333,-34.666667,-26.666667)"/>
<path style=" stroke:none;fill-rule:nonzero;fill:rgb(0%,0%,0%);fill-opacity:1;" d="M 72.625 104.832031 L 72.625 103.769531 L 69.417969 103.769531 L 69.417969 100.582031 L 68.375 100.582031 L 68.375 103.769531 L 65.167969 103.769531 L 65.167969 104.832031 L 68.375 104.832031 L 68.375 108.019531 L 69.417969 108.019531 L 69.417969 104.832031 Z M 72.625 104.832031 "/>
<path style="fill-rule:nonzero;fill:rgb(69.803923%,85.09804%,100%);fill-opacity:1;stroke-width:1;stroke-linecap:butt;stroke-linejoin:round;stroke:rgb(0%,0%,0%);stroke-opacity:1;stroke-miterlimit:10;" d="M 95.172852 85.499023 L 120.171875 85.499023 L 120.171875 110.500977 L 95.172852 110.500977 Z M 95.172852 85.499023 " transform="matrix(1.333333,0,0,1.333333,-34.666667,-26.666667)"/>
<path style=" stroke:none;fill-rule:nonzero;fill:rgb(0%,0%,0%);fill-opacity:1;" d="M 108.9375 104.542969 C 108.9375 103.667969 109.019531 103.519531 109.792969 103.042969 C 110.894531 102.375 111.230469 101.875 111.230469 101.0625 C 111.230469 99.917969 110.3125 99.0625 108.792969 99.0625 C 107.457031 99.0625 106.582031 99.8125 106.582031 100.8125 C 106.582031 101.332031 106.894531 101.75 107.375 101.75 C 107.75 101.75 108.144531 101.394531 108.144531 100.9375 C 108.144531 100.6875 108.082031 100.5625 107.894531 100.332031 C 107.75 100.167969 107.707031 100.105469 107.707031 99.980469 C 107.707031 99.6875 108 99.5 108.4375 99.5 C 109.082031 99.5 109.4375 100.082031 109.4375 101.0625 C 109.4375 102.125 108.5625 102.894531 108.542969 104 C 108.542969 104.144531 108.542969 104.25 108.5625 104.542969 Z M 109.769531 106.480469 C 109.769531 105.9375 109.3125 105.457031 108.769531 105.457031 C 108.207031 105.457031 107.75 105.917969 107.75 106.480469 C 107.75 107.042969 108.1875 107.480469 108.769531 107.480469 C 109.332031 107.480469 109.769531 107.042969 109.769531 106.480469 Z M 109.769531 106.480469 "/>
<path style="fill-rule:nonzero;fill:rgb(69.803923%,85.09804%,100%);fill-opacity:1;stroke-width:1;stroke-linecap:butt;stroke-linejoin:round;stroke:rgb(0%,0%,0%);stroke-opacity:1;stroke-miterlimit:10;" d="M 125.172852 85.499023 L 150.171875 85.499023 L 150.171875 110.500977 L 125.172852 110.500977 Z M 125.172852 85.499023 " transform="matrix(1.333333,0,0,1.333333,-34.666667,-26.666667)"/>
<path style=" stroke:none;fill-rule:nonzero;fill:rgb(0%,0%,0%);fill-opacity:1;" d="M 148.9375 104.542969 C 148.9375 103.667969 149.019531 103.519531 149.792969 103.042969 C 150.894531 102.375 151.230469 101.875 151.230469 101.0625 C 151.230469 99.917969 150.3125 99.0625 148.792969 99.0625 C 147.457031 99.0625 146.582031 99.8125 146.582031 100.8125 C 146.582031 101.332031 146.894531 101.75 147.375 101.75 C 147.75 101.75 148.144531 101.394531 148.144531 100.9375 C 148.144531 100.6875 148.082031 100.5625 147.894531 100.332031 C 147.75 100.167969 147.707031 100.105469 147.707031 99.980469 C 147.707031 99.6875 148 99.5 148.4375 99.5 C 149.082031 99.5 149.4375 100.082031 149.4375 101.0625 C 149.4375 102.125 148.5625 102.894531 148.542969 104 C 148.542969 104.144531 148.542969 104.25 148.5625 104.542969 Z M 149.769531 106.480469 C 149.769531 105.9375 149.3125 105.457031 148.769531 105.457031 C 148.207031 105.457031 147.75 105.917969 147.75 106.480469 C 147.75 107.042969 148.1875 107.480469 148.769531 107.480469 C 149.332031 107.480469 149.769531 107.042969 149.769531 106.480469 Z M 149.769531 106.480469 "/>
<path style="fill-rule:nonzero;fill:rgb(69.803923%,85.09804%,100%);fill-opacity:1;stroke-width:1;stroke-linecap:butt;stroke-linejoin:round;stroke:rgb(0%,0%,0%);stroke-opacity:1;stroke-miterlimit:10;" d="M 155.172852 85.499023 L 180.171875 85.499023 L 180.171875 110.500977 L 155.172852 110.500977 Z M 155.172852 85.499023 " transform="matrix(1.333333,0,0,1.333333,-34.666667,-26.666667)"/>
<path style=" stroke:none;fill-rule:nonzero;fill:rgb(0%,0%,0%);fill-opacity:1;" d="M 192.625 104.832031 L 192.625 103.769531 L 189.417969 103.769531 L 189.417969 100.582031 L 188.375 100.582031 L 188.375 103.769531 L 185.167969 103.769531 L 185.167969 104.832031 L 188.375 104.832031 L 188.375 108.019531 L 189.417969 108.019531 L 189.417969 104.832031 Z M 192.625 104.832031 "/>
<path style="fill-rule:nonzero;fill:rgb(69.803923%,85.09804%,100%);fill-opacity:1;stroke-width:1;stroke-linecap:butt;stroke-linejoin:round;stroke:rgb(0%,0%,0%);stroke-opacity:1;stroke-miterlimit:10;" d="M 65.172852 55.499023 L 90.171875 55.499023 L 90.171875 80.500977 L 65.172852 80.500977 Z M 65.172852 55.499023 " transform="matrix(1.333333,0,0,1.333333,-34.666667,-26.666667)"/>
<path style=" stroke:none;fill-rule:nonzero;fill:rgb(0%,0%,0%);fill-opacity:1;" d="M 68.9375 64.542969 C 68.9375 63.667969 69.019531 63.519531 69.792969 63.042969 C 70.894531 62.375 71.230469 61.875 71.230469 61.0625 C 71.230469 59.917969 70.3125 59.0625 68.792969 59.0625 C 67.457031 59.0625 66.582031 59.8125 66.582031 60.8125 C 66.582031 61.332031 66.894531 61.75 67.375 61.75 C 67.75 61.75 68.144531 61.394531 68.144531 60.9375 C 68.144531 60.6875 68.082031 60.5625 67.894531 60.332031 C 67.75 60.167969 67.707031 60.105469 67.707031 59.980469 C 67.707031 59.6875 68 59.5 68.4375 59.5 C 69.082031 59.5 69.4375 60.082031 69.4375 61.0625 C 69.4375 62.125 68.5625 62.894531 68.542969 64 C 68.542969 64.144531 68.542969 64.25 68.5625 64.542969 Z M 69.769531 66.480469 C 69.769531 65.9375 69.3125 65.457031 68.769531 65.457031 C 68.207031 65.457031 67.75 65.917969 67.75 66.480469 C 67.75 67.042969 68.1875 67.480469 68.769531 67.480469 C 69.332031 67.480469 69.769531 67.042969 69.769531 66.480469 Z M 69.769531 66.480469 "/>
<path style="fill-rule:nonzero;fill:rgb(69.803923%,85.09804%,100%);fill-opacity:1;stroke-width:1;stroke-linecap:butt;stroke-linejoin:round;stroke:rgb(0%,0%,0%);stroke-opacity:1;stroke-miterlimit:10;" d="M 95.172852 55.499023 L 120.171875 55.499023 L 120.171875 80.500977 L 95.172852 80.500977 Z M 95.172852 55.499023 " transform="matrix(1.333333,0,0,1.333333,-34.666667,-26.666667)"/>
<path style=" stroke:none;fill-rule:nonzero;fill:rgb(0%,0%,0%);fill-opacity:1;" d="M 112.625 64.832031 L 112.625 63.769531 L 109.417969 63.769531 L 109.417969 60.582031 L 108.375 60.582031 L 108.375 63.769531 L 105.167969 63.769531 L 105.167969 64.832031 L 108.375 64.832031 L 108.375 68.019531 L 109.417969 68.019531 L 109.417969 64.832031 Z M 112.625 64.832031 "/>
<path style="fill-rule:nonzero;fill:rgb(69.803923%,85.09804%,100%);fill-opacity:1;stroke-width:1;stroke-linecap:butt;stroke-linejoin:round;stroke:rgb(0%,0%,0%);stroke-opacity:1;stroke-miterlimit:10;" d="M 125.172852 55.499023 L 150.171875 55.499023 L 150.171875 80.500977 L 125.172852 80.500977 Z M 125.172852 55.499023 " transform="matrix(1.333333,0,0,1.333333,-34.666667,-26.666667)"/>
<path style=" stroke:none;fill-rule:nonzero;fill:rgb(0%,0%,0%);fill-opacity:1;" d="M 152.625 64.832031 L 152.625 63.769531 L 149.417969 63.769531 L 149.417969 60.582031 L 148.375 60.582031 L 148.375 63.769531 L 145.167969 63.769531 L 145.167969 64.832031 L 148.375 64.832031 L 148.375 68.019531 L 149.417969 68.019531 L 149.417969 64.832031 Z M 152.625 64.832031 "/>
<path style="fill-rule:nonzero;fill:rgb(69.803923%,85.09804%,100%);fill-opacity:1;stroke-width:1;stroke-linecap:butt;stroke-linejoin:round;stroke:rgb(0%,0%,0%);stroke-opacity:1;stroke-miterlimit:10;" d="M 155.172852 55.499023 L 180.171875 55.499023 L 180.171875 80.500977 L 155.172852 80.500977 Z M 155.172852 55.499023 " transform="matrix(1.333333,0,0,1.333333,-34.666667,-26.666667)"/>
<path style=" stroke:none;fill-rule:nonzero;fill:rgb(0%,0%,0%);fill-opacity:1;" d="M 188.9375 64.542969 C 188.9375 63.667969 189.019531 63.519531 189.792969 63.042969 C 190.894531 62.375 191.230469 61.875 191.230469 61.0625 C 191.230469 59.917969 190.3125 59.0625 188.792969 59.0625 C 187.457031 59.0625 186.582031 59.8125 186.582031 60.8125 C 186.582031 61.332031 186.894531 61.75 187.375 61.75 C 187.75 61.75 188.144531 61.394531 188.144531 60.9375 C 188.144531 60.6875 188.082031 60.5625 187.894531 60.332031 C 187.75 60.167969 187.707031 60.105469 187.707031 59.980469 C 187.707031 59.6875 188 59.5 188.4375 59.5 C 189.082031 59.5 189.4375 60.082031 189.4375 61.0625 C 189.4375 62.125 188.5625 62.894531 188.542969 64 C 188.542969 64.144531 188.542969 64.25 188.5625 64.542969 Z M 189.769531 66.480469 C 189.769531 65.9375 189.3125 65.457031 188.769531 65.457031 C 188.207031 65.457031 187.75 65.917969 187.75 66.480469 C 187.75 67.042969 188.1875 67.480469 188.769531 67.480469 C 189.332031 67.480469 189.769531 67.042969 189.769531 66.480469 Z M 189.769531 66.480469 "/>
<path style="fill-rule:nonzero;fill:rgb(69.803923%,85.09804%,100%);fill-opacity:1;stroke-width:1;stroke-linecap:butt;stroke-linejoin:round;stroke:rgb(0%,0%,0%);stroke-opacity:1;stroke-miterlimit:10;" d="M 65.172852 145.499023 L 90.171875 145.499023 L 90.171875 170.500977 L 65.172852 170.500977 Z M 65.172852 145.499023 " transform="matrix(1.333333,0,0,1.333333,-34.666667,-26.666667)"/>
<path style=" stroke:none;fill-rule:nonzero;fill:rgb(0%,0%,0%);fill-opacity:1;" d="M 68.9375 184.542969 C 68.9375 183.667969 69.019531 183.519531 69.792969 183.042969 C 70.894531 182.375 71.230469 181.875 71.230469 181.0625 C 71.230469 179.917969 70.3125 179.0625 68.792969 179.0625 C 67.457031 179.0625 66.582031 179.8125 66.582031 180.8125 C 66.582031 181.332031 66.894531 181.75 67.375 181.75 C 67.75 181.75 68.144531 181.394531 68.144531 180.9375 C 68.144531 180.6875 68.082031 180.5625 67.894531 180.332031 C 67.75 180.167969 67.707031 180.105469 67.707031 179.980469 C 67.707031 179.6875 68 179.5 68.4375 179.5 C 69.082031 179.5 69.4375 180.082031 69.4375 181.0625 C 69.4375 182.125 68.5625 182.894531 68.542969 184 C 68.542969 184.144531 68.542969 184.25 68.5625 184.542969 Z M 69.769531 186.480469 C 69.769531 185.9375 69.3125 185.457031 68.769531 185.457031 C 68.207031 185.457031 67.75 185.917969 67.75 186.480469 C 67.75 187.042969 68.1875 187.480469 68.769531 187.480469 C 69.332031 187.480469 69.769531 187.042969 69.769531 186.480469 Z M 69.769531 186.480469 "/>
<path style="fill-rule:nonzero;fill:rgb(69.803923%,85.09804%,100%);fill-opacity:1;stroke-width:1;stroke-linecap:butt;stroke-linejoin:round;stroke:rgb(0%,0%,0%);stroke-opacity:1;stroke-miterlimit:10;" d="M 95.172852 145.499023 L 120.171875 145.499023 L 120.171875 170.500977 L 95.172852 170.500977 Z M 95.172852 145.499023 " transform="matrix(1.333333,0,0,1.333333,-34.666667,-26.666667)"/>
<path style=" stroke:none;fill-rule:nonzero;fill:rgb(0%,0%,0%);fill-opacity:1;" d="M 108.9375 184.542969 C 108.9375 183.667969 109.019531 183.519531 109.792969 183.042969 C 110.894531 182.375 111.230469 181.875 111.230469 181.0625 C 111.230469 179.917969 110.3125 179.0625 108.792969 179.0625 C 107.457031 179.0625 106.582031 179.8125 106.582031 180.8125 C 106.582031 181.332031 106.894531 181.75 107.375 181.75 C 107.75 181.75 108.144531 181.394531 108.144531 180.9375 C 108.144531 180.6875 108.082031 180.5625 107.894531 180.332031 C 107.75 180.167969 107.707031 180.105469 107.707031 179.980469 C 107.707031 179.6875 108 179.5 108.4375 179.5 C 109.082031 179.5 109.4375 180.082031 109.4375 181.0625 C 109.4375 182.125 108.5625 182.894531 108.542969 184 C 108.542969 184.144531 108.542969 184.25 108.5625 184.542969 Z M 109.769531 186.480469 C 109.769531 185.9375 109.3125 185.457031 108.769531 185.457031 C 108.207031 185.457031 107.75 185.917969 107.75 186.480469 C 107.75 187.042969 108.1875 187.480469 108.769531 187.480469 C 109.332031 187.480469 109.769531 187.042969 109.769531 186.480469 Z M 109.769531 186.480469 "/>
<path style="fill-rule:nonzero;fill:rgb(69.803923%,85.09804%,100%);fill-opacity:1;stroke-width:1;stroke-linecap:butt;stroke-linejoin:round;stroke:rgb(0%,0%,0%);stroke-opacity:1;stroke-miterlimit:10;" d="M 125.172852 145.499023 L 150.171875 145.499023 L 150.171875 170.500977 L 125.172852 170.500977 Z M 125.172852 145.499023 " transform="matrix(1.333333,0,0,1.333333,-34.666667,-26.666667)"/>
<path style=" stroke:none;fill-rule:nonzero;fill:rgb(0%,0%,0%);fill-opacity:1;" d="M 152.625 184.832031 L 152.625 183.769531 L 149.417969 183.769531 L 149.417969 180.582031 L 148.375 180.582031 L 148.375 183.769531 L 145.167969 183.769531 L 145.167969 184.832031 L 148.375 184.832031 L 148.375 188.019531 L 149.417969 188.019531 L 149.417969 184.832031 Z M 152.625 184.832031 "/>
<path style="fill-rule:nonzero;fill:rgb(69.803923%,85.09804%,100%);fill-opacity:1;stroke-width:1;stroke-linecap:butt;stroke-linejoin:round;stroke:rgb(0%,0%,0%);stroke-opacity:1;stroke-miterlimit:10;" d="M 155.172852 145.499023 L 180.171875 145.499023 L 180.171875 170.500977 L 155.172852 170.500977 Z M 155.172852 145.499023 " transform="matrix(1.333333,0,0,1.333333,-34.666667,-26.666667)"/>
<path style=" stroke:none;fill-rule:nonzero;fill:rgb(0%,0%,0%);fill-opacity:1;" d="M 192.625 184.832031 L 192.625 183.769531 L 189.417969 183.769531 L 189.417969 180.582031 L 188.375 180.582031 L 188.375 183.769531 L 185.167969 183.769531 L 185.167969 184.832031 L 188.375 184.832031 L 188.375 188.019531 L 189.417969 188.019531 L 189.417969 184.832031 Z M 192.625 184.832031 "/>
<path style="fill-rule:nonzero;fill:rgb(69.803923%,85.09804%,100%);fill-opacity:1;stroke-width:1;stroke-linecap:butt;stroke-linejoin:round;stroke:rgb(0%,0%,0%);stroke-opacity:1;stroke-miterlimit:10;" d="M 65.172852 175.499023 L 90.171875 175.499023 L 90.171875 200.500977 L 65.172852 200.500977 Z M 65.172852 175.499023 " transform="matrix(1.333333,0,0,1.333333,-34.666667,-26.666667)"/>
<path style=" stroke:none;fill-rule:nonzero;fill:rgb(0%,0%,0%);fill-opacity:1;" d="M 68.9375 224.542969 C 68.9375 223.667969 69.019531 223.519531 69.792969 223.042969 C 70.894531 222.375 71.230469 221.875 71.230469 221.0625 C 71.230469 219.917969 70.3125 219.0625 68.792969 219.0625 C 67.457031 219.0625 66.582031 219.8125 66.582031 220.8125 C 66.582031 221.332031 66.894531 221.75 67.375 221.75 C 67.75 221.75 68.144531 221.394531 68.144531 220.9375 C 68.144531 220.6875 68.082031 220.5625 67.894531 220.332031 C 67.75 220.167969 67.707031 220.105469 67.707031 219.980469 C 67.707031 219.6875 68 219.5 68.4375 219.5 C 69.082031 219.5 69.4375 220.082031 69.4375 221.0625 C 69.4375 222.125 68.5625 222.894531 68.542969 224 C 68.542969 224.144531 68.542969 224.25 68.5625 224.542969 Z M 69.769531 226.480469 C 69.769531 225.9375 69.3125 225.457031 68.769531 225.457031 C 68.207031 225.457031 67.75 225.917969 67.75 226.480469 C 67.75 227.042969 68.1875 227.480469 68.769531 227.480469 C 69.332031 227.480469 69.769531 227.042969 69.769531 226.480469 Z M 69.769531 226.480469 "/>
<path style="fill-rule:nonzero;fill:rgb(69.803923%,85.09804%,100%);fill-opacity:1;stroke-width:1;stroke-linecap:butt;stroke-linejoin:round;stroke:rgb(0%,0%,0%);stroke-opacity:1;stroke-miterlimit:10;" d="M 95.172852 175.499023 L 120.171875 175.499023 L 120.171875 200.500977 L 95.172852 200.500977 Z M 95.172852 175.499023 " transform="matrix(1.333333,0,0,1.333333,-34.666667,-26.666667)"/>
<path style=" stroke:none;fill-rule:nonzero;fill:rgb(0%,0%,0%);fill-opacity:1;" d="M 108.9375 224.542969 C 108.9375 223.667969 109.019531 223.519531 109.792969 223.042969 C 110.894531 222.375 111.230469 221.875 111.230469 221.0625 C 111.230469 219.917969 110.3125 219.0625 108.792969 219.0625 C 107.457031 219.0625 106.582031 219.8125 106.582031 220.8125 C 106.582031 221.332031 106.894531 221.75 107.375 221.75 C 107.75 221.75 108.144531 221.394531 108.144531 220.9375 C 108.144531 220.6875 108.082031 220.5625 107.894531 220.332031 C 107.75 220.167969 107.707031 220.105469 107.707031 219.980469 C 107.707031 219.6875 108 219.5 108.4375 219.5 C 109.082031 219.5 109.4375 220.082031 109.4375 221.0625 C 109.4375 222.125 108.5625 222.894531 108.542969 224 C 108.542969 224.144531 108.542969 224.25 108.5625 224.542969 Z M 109.769531 226.480469 C 109.769531 225.9375 109.3125 225.457031 108.769531 225.457031 C 108.207031 225.457031 107.75 225.917969 107.75 226.480469 C 107.75 227.042969 108.1875 227.480469 108.769531 227.480469 C 109.332031 227.480469 109.769531 227.042969 109.769531 226.480469 Z M 109.769531 226.480469 "/>
<path style="fill-rule:nonzero;fill:rgb(69.803923%,85.09804%,100%);fill-opacity:1;stroke-width:1;stroke-linecap:butt;stroke-linejoin:round;stroke:rgb(0%,0%,0%);stroke-opacity:1;stroke-miterlimit:10;" d="M 125.172852 175.499023 L 150.171875 175.499023 L 150.171875 200.500977 L 125.172852 200.500977 Z M 125.172852 175.499023 " transform="matrix(1.333333,0,0,1.333333,-34.666667,-26.666667)"/>
<path style=" stroke:none;fill-rule:nonzero;fill:rgb(0%,0%,0%);fill-opacity:1;" d="M 152.625 224.832031 L 152.625 223.769531 L 149.417969 223.769531 L 149.417969 220.582031 L 148.375 220.582031 L 148.375 223.769531 L 145.167969 223.769531 L 145.167969 224.832031 L 148.375 224.832031 L 148.375 228.019531 L 149.417969 228.019531 L 149.417969 224.832031 Z M 152.625 224.832031 "/>
<path style="fill-rule:nonzero;fill:rgb(69.803923%,85.09804%,100%);fill-opacity:1;stroke-width:1;stroke-linecap:butt;stroke-linejoin:round;stroke:rgb(0%,0%,0%);stroke-opacity:1;stroke-miterlimit:10;" d="M 155.172852 175.499023 L 180.171875 175.499023 L 180.171875 200.500977 L 155.172852 200.500977 Z M 155.172852 175.499023 " transform="matrix(1.333333,0,0,1.333333,-34.666667,-26.666667)"/>
<path style=" stroke:none;fill-rule:nonzero;fill:rgb(0%,0%,0%);fill-opacity:1;" d="M 188.9375 224.542969 C 188.9375 223.667969 189.019531 223.519531 189.792969 223.042969 C 190.894531 222.375 191.230469 221.875 191.230469 221.0625 C 191.230469 219.917969 190.3125 219.0625 188.792969 219.0625 C 187.457031 219.0625 186.582031 219.8125 186.582031 220.8125 C 186.582031 221.332031 186.894531 221.75 187.375 221.75 C 187.75 221.75 188.144531 221.394531 188.144531 220.9375 C 188.144531 220.6875 188.082031 220.5625 187.894531 220.332031 C 187.75 220.167969 187.707031 220.105469 187.707031 219.980469 C 187.707031 219.6875 188 219.5 188.4375 219.5 C 189.082031 219.5 189.4375 220.082031 189.4375 221.0625 C 189.4375 222.125 188.5625 222.894531 188.542969 224 C 188.542969 224.144531 188.542969 224.25 188.5625 224.542969 Z M 189.769531 226.480469 C 189.769531 225.9375 189.3125 225.457031 188.769531 225.457031 C 188.207031 225.457031 187.75 225.917969 187.75 226.480469 C 187.75 227.042969 188.1875 227.480469 188.769531 227.480469 C 189.332031 227.480469 189.769531 227.042969 189.769531 226.480469 Z M 189.769531 226.480469 "/>
<path style="fill-rule:nonzero;fill:rgb(69.803923%,85.09804%,100%);fill-opacity:1;stroke-width:1;stroke-linecap:butt;stroke-linejoin:round;stroke:rgb(0%,0%,0%);stroke-opacity:1;stroke-miterlimit:10;" d="M 226.176758 129.488281 L 251.175781 129.488281 L 251.175781 154.487305 L 226.176758 154.487305 Z M 226.176758 129.488281 " transform="matrix(1.333333,0,0,1.333333,-34.666667,-26.666667)"/>
<path style=" stroke:none;fill-rule:nonzero;fill:rgb(0%,0%,0%);fill-opacity:1;" d="M 281.773438 163.144531 L 281.773438 164.601562 L 285.378906 164.601562 L 285.378906 163.144531 Z M 281.773438 163.144531 "/>
<path style="fill-rule:nonzero;fill:rgb(69.803923%,85.09804%,100%);fill-opacity:1;stroke-width:1;stroke-linecap:butt;stroke-linejoin:round;stroke:rgb(0%,0%,0%);stroke-opacity:1;stroke-miterlimit:10;" d="M 256.176758 129.488281 L 281.175781 129.488281 L 281.175781 154.487305 L 256.176758 154.487305 Z M 256.176758 129.488281 " transform="matrix(1.333333,0,0,1.333333,-34.666667,-26.666667)"/>
<path style=" stroke:none;fill-rule:nonzero;fill:rgb(0%,0%,0%);fill-opacity:1;" d="M 323.609375 163.191406 C 323.609375 162.316406 323.695312 162.171875 324.464844 161.691406 C 325.570312 161.023438 325.902344 160.523438 325.902344 159.710938 C 325.902344 158.566406 324.984375 157.710938 323.464844 157.710938 C 322.132812 157.710938 321.257812 158.460938 321.257812 159.460938 C 321.257812 159.984375 321.570312 160.398438 322.046875 160.398438 C 322.421875 160.398438 322.820312 160.046875 322.820312 159.585938 C 322.820312 159.335938 322.757812 159.210938 322.570312 158.984375 C 322.421875 158.816406 322.382812 158.753906 322.382812 158.628906 C 322.382812 158.335938 322.671875 158.148438 323.109375 158.148438 C 323.757812 158.148438 324.109375 158.734375 324.109375 159.710938 C 324.109375 160.773438 323.234375 161.546875 323.214844 162.648438 C 323.214844 162.796875 323.214844 162.898438 323.234375 163.191406 Z M 324.445312 165.128906 C 324.445312 164.585938 323.984375 164.109375 323.445312 164.109375 C 322.882812 164.109375 322.421875 164.566406 322.421875 165.128906 C 322.421875 165.691406 322.859375 166.128906 323.445312 166.128906 C 324.007812 166.128906 324.445312 165.691406 324.445312 165.128906 Z M 324.445312 165.128906 "/>
<path style="fill-rule:nonzero;fill:rgb(100%,100%,100%);fill-opacity:1;stroke-width:1;stroke-linecap:butt;stroke-linejoin:round;stroke:rgb(0%,0%,0%);stroke-opacity:1;stroke-miterlimit:10;" d="M 286.176758 129.488281 L 311.175781 129.488281 L 311.175781 154.487305 L 286.176758 154.487305 Z M 286.176758 129.488281 " transform="matrix(1.333333,0,0,1.333333,-34.666667,-26.666667)"/>
<path style="fill-rule:nonzero;fill:rgb(69.803923%,85.09804%,100%);fill-opacity:1;stroke-width:1;stroke-linecap:butt;stroke-linejoin:round;stroke:rgb(0%,0%,0%);stroke-opacity:1;stroke-miterlimit:10;" d="M 316.176758 129.488281 L 341.175781 129.488281 L 341.175781 154.487305 L 316.176758 154.487305 Z M 316.176758 129.488281 " transform="matrix(1.333333,0,0,1.333333,-34.666667,-26.666667)"/>
<path style=" stroke:none;fill-rule:nonzero;fill:rgb(0%,0%,0%);fill-opacity:1;" d="M 401.773438 163.144531 L 401.773438 164.601562 L 405.378906 164.601562 L 405.378906 163.144531 Z M 401.773438 163.144531 "/>
<path style="fill-rule:nonzero;fill:rgb(69.803923%,85.09804%,100%);fill-opacity:1;stroke-width:1;stroke-linecap:butt;stroke-linejoin:round;stroke:rgb(0%,0%,0%);stroke-opacity:1;stroke-miterlimit:10;" d="M 226.176758 99.488281 L 251.175781 99.488281 L 251.175781 124.487305 L 226.176758 124.487305 Z M 226.176758 99.488281 " transform="matrix(1.333333,0,0,1.333333,-34.666667,-26.666667)"/>
<path style=" stroke:none;fill-rule:nonzero;fill:rgb(0%,0%,0%);fill-opacity:1;" d="M 281.773438 123.144531 L 281.773438 124.601562 L 285.378906 124.601562 L 285.378906 123.144531 Z M 281.773438 123.144531 "/>
<path style="fill-rule:nonzero;fill:rgb(100%,100%,100%);fill-opacity:1;stroke-width:1;stroke-linecap:butt;stroke-linejoin:round;stroke:rgb(0%,0%,0%);stroke-opacity:1;stroke-miterlimit:10;" d="M 256.176758 99.488281 L 281.175781 99.488281 L 281.175781 124.487305 L 256.176758 124.487305 Z M 256.176758 99.488281 " transform="matrix(1.333333,0,0,1.333333,-34.666667,-26.666667)"/>
<path style="fill-rule:nonzero;fill:rgb(69.803923%,85.09804%,100%);fill-opacity:1;stroke-width:1;stroke-linecap:butt;stroke-linejoin:round;stroke:rgb(0%,0%,0%);stroke-opacity:1;stroke-miterlimit:10;" d="M 286.176758 99.488281 L 311.175781 99.488281 L 311.175781 124.487305 L 286.176758 124.487305 Z M 286.176758 99.488281 " transform="matrix(1.333333,0,0,1.333333,-34.666667,-26.666667)"/>
<path style=" stroke:none;fill-rule:nonzero;fill:rgb(0%,0%,0%);fill-opacity:1;" d="M 363.609375 123.191406 C 363.609375 122.316406 363.695312 122.171875 364.464844 121.691406 C 365.570312 121.023438 365.902344 120.523438 365.902344 119.710938 C 365.902344 118.566406 364.984375 117.710938 363.464844 117.710938 C 362.132812 117.710938 361.257812 118.460938 361.257812 119.460938 C 361.257812 119.984375 361.570312 120.398438 362.046875 120.398438 C 362.421875 120.398438 362.820312 120.046875 362.820312 119.585938 C 362.820312 119.335938 362.757812 119.210938 362.570312 118.984375 C 362.421875 118.816406 362.382812 118.753906 362.382812 118.628906 C 362.382812 118.335938 362.671875 118.148438 363.109375 118.148438 C 363.757812 118.148438 364.109375 118.734375 364.109375 119.710938 C 364.109375 120.773438 363.234375 121.546875 363.214844 122.648438 C 363.214844 122.796875 363.214844 122.898438 363.234375 123.191406 Z M 364.445312 125.128906 C 364.445312 124.585938 363.984375 124.109375 363.445312 124.109375 C 362.882812 124.109375 362.421875 124.566406 362.421875 125.128906 C 362.421875 125.691406 362.859375 126.128906 363.445312 126.128906 C 364.007812 126.128906 364.445312 125.691406 364.445312 125.128906 Z M 364.445312 125.128906 "/>
<path style="fill-rule:nonzero;fill:rgb(69.803923%,85.09804%,100%);fill-opacity:1;stroke-width:1;stroke-linecap:butt;stroke-linejoin:round;stroke:rgb(0%,0%,0%);stroke-opacity:1;stroke-miterlimit:10;" d="M 316.176758 99.488281 L 341.175781 99.488281 L 341.175781 124.487305 L 316.176758 124.487305 Z M 316.176758 99.488281 " transform="matrix(1.333333,0,0,1.333333,-34.666667,-26.666667)"/>
<path style=" stroke:none;fill-rule:nonzero;fill:rgb(0%,0%,0%);fill-opacity:1;" d="M 401.773438 123.144531 L 401.773438 124.601562 L 405.378906 124.601562 L 405.378906 123.144531 Z M 401.773438 123.144531 "/>
<path style="fill-rule:nonzero;fill:rgb(100%,100%,100%);fill-opacity:1;stroke-width:1;stroke-linecap:butt;stroke-linejoin:round;stroke:rgb(0%,0%,0%);stroke-opacity:1;stroke-miterlimit:10;" d="M 226.176758 69.488281 L 251.175781 69.488281 L 251.175781 94.487305 L 226.176758 94.487305 Z M 226.176758 69.488281 " transform="matrix(1.333333,0,0,1.333333,-34.666667,-26.666667)"/>
<path style="fill-rule:nonzero;fill:rgb(69.803923%,85.09804%,100%);fill-opacity:1;stroke-width:1;stroke-linecap:butt;stroke-linejoin:round;stroke:rgb(0%,0%,0%);stroke-opacity:1;stroke-miterlimit:10;" d="M 256.176758 69.488281 L 281.175781 69.488281 L 281.175781 94.487305 L 256.176758 94.487305 Z M 256.176758 69.488281 " transform="matrix(1.333333,0,0,1.333333,-34.666667,-26.666667)"/>
<path style=" stroke:none;fill-rule:nonzero;fill:rgb(0%,0%,0%);fill-opacity:1;" d="M 327.296875 83.484375 L 327.296875 82.421875 L 324.089844 82.421875 L 324.089844 79.234375 L 323.046875 79.234375 L 323.046875 82.421875 L 319.839844 82.421875 L 319.839844 83.484375 L 323.046875 83.484375 L 323.046875 86.671875 L 324.089844 86.671875 L 324.089844 83.484375 Z M 327.296875 83.484375 "/>
<path style="fill-rule:nonzero;fill:rgb(69.803923%,85.09804%,100%);fill-opacity:1;stroke-width:1;stroke-linecap:butt;stroke-linejoin:round;stroke:rgb(0%,0%,0%);stroke-opacity:1;stroke-miterlimit:10;" d="M 286.176758 69.488281 L 311.175781 69.488281 L 311.175781 94.487305 L 286.176758 94.487305 Z M 286.176758 69.488281 " transform="matrix(1.333333,0,0,1.333333,-34.666667,-26.666667)"/>
<path style=" stroke:none;fill-rule:nonzero;fill:rgb(0%,0%,0%);fill-opacity:1;" d="M 364.21875 83.476562 L 364.21875 81.082031 L 362.925781 81.082031 L 362.925781 83.476562 L 360.550781 83.476562 L 360.550781 84.746094 L 362.925781 84.746094 L 362.925781 87.144531 L 364.21875 87.144531 L 364.21875 84.746094 L 366.613281 84.746094 L 366.613281 83.476562 Z M 364.21875 83.476562 "/>
<path style="fill-rule:nonzero;fill:rgb(69.803923%,85.09804%,100%);fill-opacity:1;stroke-width:1;stroke-linecap:butt;stroke-linejoin:round;stroke:rgb(0%,0%,0%);stroke-opacity:1;stroke-miterlimit:10;" d="M 316.176758 69.488281 L 341.175781 69.488281 L 341.175781 94.487305 L 316.176758 94.487305 Z M 316.176758 69.488281 " transform="matrix(1.333333,0,0,1.333333,-34.666667,-26.666667)"/>
<path style=" stroke:none;fill-rule:nonzero;fill:rgb(0%,0%,0%);fill-opacity:1;" d="M 403.609375 83.191406 C 403.609375 82.316406 403.695312 82.171875 404.464844 81.691406 C 405.570312 81.023438 405.902344 80.523438 405.902344 79.710938 C 405.902344 78.566406 404.984375 77.710938 403.464844 77.710938 C 402.132812 77.710938 401.257812 78.460938 401.257812 79.460938 C 401.257812 79.984375 401.570312 80.398438 402.046875 80.398438 C 402.421875 80.398438 402.820312 80.046875 402.820312 79.585938 C 402.820312 79.335938 402.757812 79.210938 402.570312 78.984375 C 402.421875 78.816406 402.382812 78.753906 402.382812 78.628906 C 402.382812 78.335938 402.671875 78.148438 403.109375 78.148438 C 403.757812 78.148438 404.109375 78.734375 404.109375 79.710938 C 404.109375 80.773438 403.234375 81.546875 403.214844 82.648438 C 403.214844 82.796875 403.214844 82.898438 403.234375 83.191406 Z M 404.445312 85.128906 C 404.445312 84.585938 403.984375 84.109375 403.445312 84.109375 C 402.882812 84.109375 402.421875 84.566406 402.421875 85.128906 C 402.421875 85.691406 402.859375 86.128906 403.445312 86.128906 C 404.007812 86.128906 404.445312 85.691406 404.445312 85.128906 Z M 404.445312 85.128906 "/>
<path style="fill-rule:nonzero;fill:rgb(69.803923%,85.09804%,100%);fill-opacity:1;stroke-width:1;stroke-linecap:butt;stroke-linejoin:round;stroke:rgb(0%,0%,0%);stroke-opacity:1;stroke-miterlimit:10;" d="M 226.176758 159.488281 L 251.175781 159.488281 L 251.175781 184.487305 L 226.176758 184.487305 Z M 226.176758 159.488281 " transform="matrix(1.333333,0,0,1.333333,-34.666667,-26.666667)"/>
<path style=" stroke:none;fill-rule:nonzero;fill:rgb(0%,0%,0%);fill-opacity:1;" d="M 283.609375 203.191406 C 283.609375 202.316406 283.695312 202.171875 284.464844 201.691406 C 285.570312 201.023438 285.902344 200.523438 285.902344 199.710938 C 285.902344 198.566406 284.984375 197.710938 283.464844 197.710938 C 282.132812 197.710938 281.257812 198.460938 281.257812 199.460938 C 281.257812 199.984375 281.570312 200.398438 282.046875 200.398438 C 282.421875 200.398438 282.820312 200.046875 282.820312 199.585938 C 282.820312 199.335938 282.757812 199.210938 282.570312 198.984375 C 282.421875 198.816406 282.382812 198.753906 282.382812 198.628906 C 282.382812 198.335938 282.671875 198.148438 283.109375 198.148438 C 283.757812 198.148438 284.109375 198.734375 284.109375 199.710938 C 284.109375 200.773438 283.234375 201.546875 283.214844 202.648438 C 283.214844 202.796875 283.214844 202.898438 283.234375 203.191406 Z M 284.445312 205.128906 C 284.445312 204.585938 283.984375 204.109375 283.445312 204.109375 C 282.882812 204.109375 282.421875 204.566406 282.421875 205.128906 C 282.421875 205.691406 282.859375 206.128906 283.445312 206.128906 C 284.007812 206.128906 284.445312 205.691406 284.445312 205.128906 Z M 284.445312 205.128906 "/>
<path style="fill-rule:nonzero;fill:rgb(69.803923%,85.09804%,100%);fill-opacity:1;stroke-width:1;stroke-linecap:butt;stroke-linejoin:round;stroke:rgb(0%,0%,0%);stroke-opacity:1;stroke-miterlimit:10;" d="M 256.176758 159.488281 L 281.175781 159.488281 L 281.175781 184.487305 L 256.176758 184.487305 Z M 256.176758 159.488281 " transform="matrix(1.333333,0,0,1.333333,-34.666667,-26.666667)"/>
<path style=" stroke:none;fill-rule:nonzero;fill:rgb(0%,0%,0%);fill-opacity:1;" d="M 327.296875 203.484375 L 327.296875 202.421875 L 324.089844 202.421875 L 324.089844 199.234375 L 323.046875 199.234375 L 323.046875 202.421875 L 319.839844 202.421875 L 319.839844 203.484375 L 323.046875 203.484375 L 323.046875 206.671875 L 324.089844 206.671875 L 324.089844 203.484375 Z M 327.296875 203.484375 "/>
<path style="fill-rule:nonzero;fill:rgb(69.803923%,85.09804%,100%);fill-opacity:1;stroke-width:1;stroke-linecap:butt;stroke-linejoin:round;stroke:rgb(0%,0%,0%);stroke-opacity:1;stroke-miterlimit:10;" d="M 286.176758 159.488281 L 311.175781 159.488281 L 311.175781 184.487305 L 286.176758 184.487305 Z M 286.176758 159.488281 " transform="matrix(1.333333,0,0,1.333333,-34.666667,-26.666667)"/>
<path style=" stroke:none;fill-rule:nonzero;fill:rgb(0%,0%,0%);fill-opacity:1;" d="M 367.296875 203.484375 L 367.296875 202.421875 L 364.089844 202.421875 L 364.089844 199.234375 L 363.046875 199.234375 L 363.046875 202.421875 L 359.839844 202.421875 L 359.839844 203.484375 L 363.046875 203.484375 L 363.046875 206.671875 L 364.089844 206.671875 L 364.089844 203.484375 Z M 367.296875 203.484375 "/>
<path style="fill-rule:nonzero;fill:rgb(100%,100%,100%);fill-opacity:1;stroke-width:1;stroke-linecap:butt;stroke-linejoin:round;stroke:rgb(0%,0%,0%);stroke-opacity:1;stroke-miterlimit:10;" d="M 316.176758 159.488281 L 341.175781 159.488281 L 341.175781 184.487305 L 316.176758 184.487305 Z M 316.176758 159.488281 " transform="matrix(1.333333,0,0,1.333333,-34.666667,-26.666667)"/>
<path style="fill:none;stroke-width:1;stroke-linecap:butt;stroke-linejoin:round;stroke:rgb(0%,0%,0%);stroke-opacity:1;stroke-miterlimit:10;" d="M 49.121094 66.989258 L 47.758789 66.989258 C 46.847656 66.989258 46.390625 70.06543 46.390625 76.217773 L 46.390625 117.757812 C 46.390625 123.910156 45.936523 126.989258 45.02832 126.989258 L 44.348633 126.989258 C 43.891602 126.989258 44.120117 126.989258 45.02832 126.989258 L 45.710937 126.989258 C 46.165039 126.989258 46.390625 130.06543 46.390625 136.217773 L 46.390625 177.757812 C 46.390625 183.910156 46.847656 186.989258 47.758789 186.989258 L 49.121094 186.989258 " transform="matrix(1.333333,0,0,1.333333,-34.666667,-26.666667)"/>
<path style=" stroke:none;fill-rule:nonzero;fill:rgb(0%,0%,0%);fill-opacity:1;" d="M 6.878906 145.378906 L 6.816406 145.378906 C 6.273438 145.378906 6.128906 145.253906 6.128906 144.691406 L 6.128906 140.585938 L 4.230469 140.585938 L 4.230469 140.796875 C 4.960938 140.835938 5.128906 140.941406 5.128906 141.566406 L 5.128906 144.335938 C 5.128906 144.753906 5.042969 144.859375 4.855469 145.023438 C 4.542969 145.296875 4.191406 145.398438 3.835938 145.398438 C 3.378906 145.398438 2.980469 145.003906 2.980469 144.460938 L 2.980469 140.585938 L 1.230469 140.585938 L 1.230469 140.753906 C 1.816406 140.796875 1.980469 140.960938 1.980469 141.546875 L 1.980469 144.566406 C 1.980469 145.484375 2.523438 146.109375 3.441406 146.109375 C 3.878906 146.109375 4.566406 145.878906 5.167969 145.066406 L 5.191406 145.066406 L 5.191406 146.046875 L 5.253906 146.085938 C 5.835938 145.859375 6.273438 145.710938 6.878906 145.546875 Z M 6.878906 145.378906 "/>
<path style=" stroke:none;fill-rule:nonzero;fill:rgb(0%,0%,0%);fill-opacity:1;" d="M 9.003906 142.378906 C 8.667969 142.171875 8.480469 141.816406 8.480469 141.546875 C 8.480469 140.984375 8.878906 140.734375 9.378906 140.734375 C 10.105469 140.734375 10.460938 141.128906 10.730469 142.210938 L 10.917969 142.210938 L 10.855469 140.585938 L 10.730469 140.585938 C 10.628906 140.691406 10.585938 140.710938 10.542969 140.710938 C 10.460938 140.710938 10.335938 140.671875 10.191406 140.609375 C 9.941406 140.484375 9.691406 140.484375 9.398438 140.484375 C 8.417969 140.484375 7.730469 141.003906 7.730469 141.941406 C 7.730469 142.566406 8.191406 143.128906 9.167969 143.691406 L 9.835938 144.046875 C 10.230469 144.273438 10.460938 144.585938 10.460938 144.941406 C 10.460938 145.441406 10.085938 145.835938 9.460938 145.835938 C 8.648438 145.835938 8.191406 145.316406 7.941406 144.148438 L 7.753906 144.148438 L 7.753906 146.023438 L 7.898438 146.023438 C 7.980469 145.921875 8.042969 145.878906 8.191406 145.878906 C 8.335938 145.878906 8.460938 145.898438 8.753906 146.003906 C 9.023438 146.085938 9.378906 146.109375 9.628906 146.109375 C 10.542969 146.109375 11.292969 145.398438 11.292969 144.609375 C 11.292969 143.921875 11.023438 143.585938 10.253906 143.128906 Z M 9.003906 142.378906 "/>
<path style=" stroke:none;fill-rule:nonzero;fill:rgb(0%,0%,0%);fill-opacity:1;" d="M 16.691406 144.023438 C 16.109375 144.898438 15.648438 145.273438 14.835938 145.273438 C 14.296875 145.273438 13.835938 145.066406 13.503906 144.609375 C 13.085938 144.046875 13.023438 143.566406 12.960938 142.648438 L 16.648438 142.648438 C 16.609375 142.003906 16.484375 141.628906 16.253906 141.296875 C 15.859375 140.753906 15.316406 140.460938 14.585938 140.460938 C 13.066406 140.460938 12.085938 141.691406 12.085938 143.378906 C 12.085938 145.023438 12.960938 146.109375 14.378906 146.109375 C 15.566406 146.109375 16.421875 145.398438 16.878906 144.109375 Z M 12.984375 142.273438 C 13.109375 141.378906 13.585938 140.898438 14.253906 140.898438 C 15.046875 140.898438 15.296875 141.296875 15.441406 142.273438 Z M 12.984375 142.273438 "/>
<path style=" stroke:none;fill-rule:nonzero;fill:rgb(0%,0%,0%);fill-opacity:1;" d="M 19.039062 140.484375 L 18.976562 140.460938 C 18.351562 140.710938 17.914062 140.878906 17.207031 141.109375 L 17.207031 141.296875 C 17.375 141.273438 17.476562 141.253906 17.625 141.253906 C 17.9375 141.253906 18.039062 141.441406 18.039062 141.984375 L 18.039062 144.984375 C 18.039062 145.566406 17.957031 145.648438 17.1875 145.796875 L 17.1875 145.984375 L 20.0625 145.984375 L 20.0625 145.796875 C 19.25 145.773438 19.039062 145.585938 19.039062 144.898438 L 19.039062 142.210938 C 19.039062 141.816406 19.539062 141.210938 19.875 141.210938 C 19.957031 141.210938 20.0625 141.273438 20.1875 141.398438 C 20.394531 141.585938 20.519531 141.628906 20.664062 141.628906 C 20.957031 141.628906 21.144531 141.441406 21.144531 141.109375 C 21.144531 140.710938 20.894531 140.460938 20.476562 140.460938 C 19.976562 140.460938 19.644531 140.734375 19.039062 141.585938 Z M 19.039062 140.484375 "/>
<path style=" stroke:none;fill-rule:nonzero;fill:rgb(0%,0%,0%);fill-opacity:1;" d="M 119.835938 4.683594 C 119.835938 4.351562 119.5625 4.078125 119.210938 4.078125 C 118.875 4.078125 118.605469 4.351562 118.605469 4.683594 C 118.605469 5.039062 118.875 5.289062 119.210938 5.289062 C 119.5625 5.289062 119.835938 5.039062 119.835938 4.683594 Z M 120.710938 12.265625 L 120.710938 12.078125 C 119.917969 12.015625 119.8125 11.890625 119.8125 11.015625 L 119.8125 6.789062 L 119.773438 6.746094 L 117.917969 7.414062 L 117.917969 7.601562 C 118.125 7.539062 118.3125 7.539062 118.417969 7.539062 C 118.710938 7.539062 118.8125 7.726562 118.8125 8.289062 L 118.8125 11.015625 C 118.8125 11.933594 118.6875 12.039062 117.855469 12.078125 L 117.855469 12.265625 Z M 120.710938 12.265625 "/>
<path style=" stroke:none;fill-rule:nonzero;fill:rgb(0%,0%,0%);fill-opacity:1;" d="M 124.191406 11.351562 C 123.941406 11.664062 123.734375 11.765625 123.484375 11.765625 C 123.023438 11.765625 122.859375 11.453125 122.859375 10.683594 L 122.859375 7.246094 L 124.066406 7.246094 L 124.066406 6.871094 L 122.859375 6.871094 L 122.859375 5.476562 C 122.859375 5.351562 122.835938 5.308594 122.773438 5.308594 C 122.691406 5.433594 122.609375 5.539062 122.523438 5.664062 C 122.066406 6.308594 121.671875 6.765625 121.359375 6.933594 C 121.234375 7.015625 121.148438 7.101562 121.148438 7.164062 C 121.148438 7.203125 121.171875 7.226562 121.210938 7.246094 L 121.835938 7.246094 L 121.835938 10.871094 C 121.835938 11.871094 122.210938 12.390625 122.898438 12.390625 C 123.503906 12.390625 123.960938 12.101562 124.359375 11.476562 Z M 124.191406 11.351562 "/>
<path style=" stroke:none;fill-rule:nonzero;fill:rgb(0%,0%,0%);fill-opacity:1;" d="M 129.234375 10.308594 C 128.652344 11.183594 128.195312 11.558594 127.382812 11.558594 C 126.839844 11.558594 126.382812 11.351562 126.046875 10.890625 C 125.632812 10.328125 125.570312 9.851562 125.507812 8.933594 L 129.195312 8.933594 C 129.152344 8.289062 129.027344 7.914062 128.796875 7.578125 C 128.402344 7.039062 127.859375 6.746094 127.132812 6.746094 C 125.609375 6.746094 124.632812 7.976562 124.632812 9.664062 C 124.632812 11.308594 125.507812 12.390625 126.921875 12.390625 C 128.109375 12.390625 128.964844 11.683594 129.421875 10.390625 Z M 125.527344 8.558594 C 125.652344 7.664062 126.132812 7.183594 126.796875 7.183594 C 127.589844 7.183594 127.839844 7.578125 127.984375 8.558594 Z M 125.527344 8.558594 "/>
<path style=" stroke:none;fill-rule:nonzero;fill:rgb(0%,0%,0%);fill-opacity:1;" d="M 138.960938 12.265625 L 138.960938 12.078125 L 138.648438 12.058594 C 138.292969 12.039062 138.148438 11.890625 138.148438 11.351562 L 138.148438 8.914062 C 138.148438 7.496094 137.710938 6.746094 136.75 6.746094 C 136.042969 6.746094 135.4375 7.058594 134.792969 7.746094 C 134.585938 7.078125 134.167969 6.746094 133.523438 6.746094 C 132.980469 6.746094 132.480469 6.851562 131.6875 7.664062 L 131.667969 7.664062 L 131.667969 6.789062 L 131.5625 6.746094 C 130.960938 6.976562 130.5625 7.101562 129.898438 7.289062 L 129.898438 7.496094 C 130.042969 7.453125 130.148438 7.433594 130.273438 7.433594 C 130.585938 7.433594 130.710938 7.640625 130.710938 8.226562 L 130.710938 11.203125 C 130.710938 11.914062 130.523438 12.078125 129.855469 12.078125 L 129.855469 12.265625 L 132.523438 12.265625 L 132.523438 12.078125 C 131.898438 12.058594 131.710938 11.933594 131.710938 11.433594 L 131.710938 8.101562 C 131.710938 8.058594 131.773438 7.976562 131.855469 7.890625 C 132.105469 7.601562 132.6875 7.371094 133.125 7.371094 C 133.648438 7.371094 133.917969 7.871094 133.917969 8.703125 L 133.917969 11.226562 C 133.917969 11.976562 133.792969 12.039062 133.105469 12.078125 L 133.105469 12.265625 L 135.792969 12.265625 L 135.792969 12.078125 C 135.105469 12.078125 134.917969 11.914062 134.917969 11.121094 L 134.917969 8.101562 C 135.292969 7.578125 135.648438 7.371094 136.210938 7.371094 C 136.898438 7.371094 137.125 7.765625 137.125 8.726562 L 137.125 11.183594 C 137.125 11.890625 137.023438 12.015625 136.355469 12.078125 L 136.355469 12.265625 Z M 138.960938 12.265625 "/>
<path style="fill:none;stroke-width:1;stroke-linecap:butt;stroke-linejoin:round;stroke:rgb(0%,0%,0%);stroke-opacity:1;stroke-miterlimit:10;" d="M 167.500977 40.299805 L 167.500977 38.389648 C 167.500977 37.118164 164.805664 36.479492 159.417969 36.479492 L 130.332031 36.479492 C 124.944336 36.479492 122.249023 35.84375 122.249023 34.575195 L 122.249023 33.617188 C 122.249023 32.981445 122.249023 33.300781 122.249023 34.575195 L 122.249023 35.527344 C 122.249023 36.163086 119.55957 36.479492 114.171875 36.479492 L 85.085937 36.479492 C 79.698242 36.479492 77.00293 37.118164 77.00293 38.389648 L 77.00293 40.299805 " transform="matrix(1.333333,0,0,1.333333,-34.666667,-26.666667)"/>
<path style=" stroke:none;fill-rule:nonzero;fill:rgb(0%,0%,0%);fill-opacity:1;" d="M 336.140625 241.050781 C 336.140625 240.71875 335.871094 240.445312 335.515625 240.445312 C 335.183594 240.445312 334.910156 240.71875 334.910156 241.050781 C 334.910156 241.40625 335.183594 241.65625 335.515625 241.65625 C 335.871094 241.65625 336.140625 241.40625 336.140625 241.050781 Z M 337.015625 248.632812 L 337.015625 248.445312 C 336.222656 248.382812 336.121094 248.257812 336.121094 247.382812 L 336.121094 243.15625 L 336.078125 243.113281 L 334.222656 243.78125 L 334.222656 243.96875 C 334.433594 243.90625 334.621094 243.90625 334.722656 243.90625 C 335.015625 243.90625 335.121094 244.09375 335.121094 244.65625 L 335.121094 247.382812 C 335.121094 248.300781 334.996094 248.40625 334.160156 248.445312 L 334.160156 248.632812 Z M 337.015625 248.632812 "/>
<path style=" stroke:none;fill-rule:nonzero;fill:rgb(0%,0%,0%);fill-opacity:1;" d="M 340.496094 247.71875 C 340.246094 248.03125 340.039062 248.132812 339.789062 248.132812 C 339.332031 248.132812 339.164062 247.820312 339.164062 247.050781 L 339.164062 243.613281 L 340.371094 243.613281 L 340.371094 243.238281 L 339.164062 243.238281 L 339.164062 241.84375 C 339.164062 241.71875 339.144531 241.675781 339.082031 241.675781 C 338.996094 241.800781 338.914062 241.90625 338.832031 242.03125 C 338.371094 242.675781 337.976562 243.132812 337.664062 243.300781 C 337.539062 243.382812 337.457031 243.46875 337.457031 243.53125 C 337.457031 243.570312 337.476562 243.59375 337.519531 243.613281 L 338.144531 243.613281 L 338.144531 247.238281 C 338.144531 248.238281 338.519531 248.757812 339.207031 248.757812 C 339.808594 248.757812 340.269531 248.46875 340.664062 247.84375 Z M 340.496094 247.71875 "/>
<path style=" stroke:none;fill-rule:nonzero;fill:rgb(0%,0%,0%);fill-opacity:1;" d="M 345.542969 246.675781 C 344.957031 247.550781 344.5 247.925781 343.6875 247.925781 C 343.144531 247.925781 342.6875 247.71875 342.355469 247.257812 C 341.9375 246.695312 341.875 246.21875 341.8125 245.300781 L 345.5 245.300781 C 345.457031 244.65625 345.332031 244.28125 345.105469 243.945312 C 344.707031 243.40625 344.167969 243.113281 343.4375 243.113281 C 341.917969 243.113281 340.9375 244.34375 340.9375 246.03125 C 340.9375 247.675781 341.8125 248.757812 343.230469 248.757812 C 344.417969 248.757812 345.269531 248.050781 345.730469 246.757812 Z M 341.832031 244.925781 C 341.957031 244.03125 342.4375 243.550781 343.105469 243.550781 C 343.894531 243.550781 344.144531 243.945312 344.292969 244.925781 Z M 341.832031 244.925781 "/>
<path style=" stroke:none;fill-rule:nonzero;fill:rgb(0%,0%,0%);fill-opacity:1;" d="M 355.265625 248.632812 L 355.265625 248.445312 L 354.953125 248.425781 C 354.597656 248.40625 354.453125 248.257812 354.453125 247.71875 L 354.453125 245.28125 C 354.453125 243.863281 354.015625 243.113281 353.058594 243.113281 C 352.347656 243.113281 351.746094 243.425781 351.097656 244.113281 C 350.890625 243.445312 350.472656 243.113281 349.828125 243.113281 C 349.285156 243.113281 348.785156 243.21875 347.996094 244.03125 L 347.972656 244.03125 L 347.972656 243.15625 L 347.871094 243.113281 C 347.265625 243.34375 346.871094 243.46875 346.203125 243.65625 L 346.203125 243.863281 C 346.347656 243.820312 346.453125 243.800781 346.578125 243.800781 C 346.890625 243.800781 347.015625 244.007812 347.015625 244.59375 L 347.015625 247.570312 C 347.015625 248.28125 346.828125 248.445312 346.160156 248.445312 L 346.160156 248.632812 L 348.828125 248.632812 L 348.828125 248.445312 C 348.203125 248.425781 348.015625 248.300781 348.015625 247.800781 L 348.015625 244.46875 C 348.015625 244.425781 348.078125 244.34375 348.160156 244.257812 C 348.410156 243.96875 348.996094 243.738281 349.433594 243.738281 C 349.953125 243.738281 350.222656 244.238281 350.222656 245.070312 L 350.222656 247.59375 C 350.222656 248.34375 350.097656 248.40625 349.410156 248.445312 L 349.410156 248.632812 L 352.097656 248.632812 L 352.097656 248.445312 C 351.410156 248.445312 351.222656 248.28125 351.222656 247.488281 L 351.222656 244.46875 C 351.597656 243.945312 351.953125 243.738281 352.515625 243.738281 C 353.203125 243.738281 353.433594 244.132812 353.433594 245.09375 L 353.433594 247.550781 C 353.433594 248.257812 353.328125 248.382812 352.660156 248.445312 L 352.660156 248.632812 Z M 355.265625 248.632812 "/>
<path style="fill:none;stroke-width:1;stroke-linecap:butt;stroke-linejoin:round;stroke:rgb(0%,0%,0%);stroke-opacity:1;stroke-miterlimit:10;" d="M 230.600586 189.488281 L 230.600586 191.398438 C 230.600586 192.666992 233.808594 193.305664 240.22168 193.305664 L 274.859375 193.305664 C 281.272461 193.305664 284.480469 193.941406 284.480469 195.21582 L 284.480469 196.167969 C 284.480469 196.803711 284.480469 196.487305 284.480469 195.21582 L 284.480469 194.260742 C 284.480469 193.625 287.688477 193.305664 294.101562 193.305664 L 328.742188 193.305664 C 335.155273 193.305664 338.363281 192.666992 338.363281 191.398438 L 338.363281 189.488281 " transform="matrix(1.333333,0,0,1.333333,-34.666667,-26.666667)"/>
<path style="fill:none;stroke-width:1;stroke-linecap:butt;stroke-linejoin:round;stroke:rgb(0%,0%,0%);stroke-opacity:1;stroke-miterlimit:10;" d="M 350.987305 176.500977 L 352.487305 176.500977 C 353.489258 176.500977 353.987305 173.454102 353.987305 167.354492 L 353.987305 134.430664 C 353.987305 128.331055 354.491211 125.28418 355.493164 125.28418 L 356.243164 125.28418 C 356.741211 125.28418 356.492188 125.28418 355.493164 125.28418 L 354.743164 125.28418 C 354.239258 125.28418 353.987305 122.237305 353.987305 116.140625 L 353.987305 83.213867 C 353.987305 77.117188 353.489258 74.070312 352.487305 74.070312 L 350.987305 74.070312 " transform="matrix(1.333333,0,0,1.333333,-34.666667,-26.666667)"/>
<path style=" stroke:none;fill-rule:nonzero;fill:rgb(0%,0%,0%);fill-opacity:1;" d="M 446.699219 135.75 C 446.699219 135.417969 446.429688 135.144531 446.074219 135.144531 C 445.742188 135.144531 445.472656 135.417969 445.472656 135.75 C 445.472656 136.105469 445.742188 136.355469 446.074219 136.355469 C 446.429688 136.355469 446.699219 136.105469 446.699219 135.75 Z M 447.574219 143.332031 L 447.574219 143.144531 C 446.785156 143.082031 446.679688 142.957031 446.679688 142.082031 L 446.679688 137.855469 L 446.636719 137.8125 L 444.785156 138.480469 L 444.785156 138.667969 C 444.992188 138.605469 445.179688 138.605469 445.285156 138.605469 C 445.574219 138.605469 445.679688 138.792969 445.679688 139.355469 L 445.679688 142.082031 C 445.679688 143 445.554688 143.105469 444.722656 143.144531 L 444.722656 143.332031 Z M 447.574219 143.332031 "/>
<path style=" stroke:none;fill-rule:nonzero;fill:rgb(0%,0%,0%);fill-opacity:1;" d="M 451.058594 142.417969 C 450.808594 142.730469 450.597656 142.832031 450.347656 142.832031 C 449.890625 142.832031 449.722656 142.519531 449.722656 141.75 L 449.722656 138.3125 L 450.933594 138.3125 L 450.933594 137.9375 L 449.722656 137.9375 L 449.722656 136.542969 C 449.722656 136.417969 449.703125 136.375 449.640625 136.375 C 449.558594 136.5 449.472656 136.605469 449.390625 136.730469 C 448.933594 137.375 448.535156 137.832031 448.222656 138 C 448.097656 138.082031 448.015625 138.167969 448.015625 138.230469 C 448.015625 138.269531 448.035156 138.292969 448.078125 138.3125 L 448.703125 138.3125 L 448.703125 141.9375 C 448.703125 142.9375 449.078125 143.457031 449.765625 143.457031 C 450.371094 143.457031 450.828125 143.167969 451.222656 142.542969 Z M 451.058594 142.417969 "/>
<path style=" stroke:none;fill-rule:nonzero;fill:rgb(0%,0%,0%);fill-opacity:1;" d="M 456.101562 141.375 C 455.519531 142.25 455.058594 142.625 454.246094 142.625 C 453.707031 142.625 453.246094 142.417969 452.914062 141.957031 C 452.496094 141.394531 452.433594 140.917969 452.371094 140 L 456.058594 140 C 456.019531 139.355469 455.894531 138.980469 455.664062 138.644531 C 455.269531 138.105469 454.726562 137.8125 453.996094 137.8125 C 452.476562 137.8125 451.496094 139.042969 451.496094 140.730469 C 451.496094 142.375 452.371094 143.457031 453.789062 143.457031 C 454.976562 143.457031 455.832031 142.75 456.289062 141.457031 Z M 452.394531 139.625 C 452.519531 138.730469 452.996094 138.25 453.664062 138.25 C 454.457031 138.25 454.707031 138.644531 454.851562 139.625 Z M 452.394531 139.625 "/>
<path style=" stroke:none;fill-rule:nonzero;fill:rgb(0%,0%,0%);fill-opacity:1;" d="M 465.824219 143.332031 L 465.824219 143.144531 L 465.511719 143.125 C 465.160156 143.105469 465.011719 142.957031 465.011719 142.417969 L 465.011719 139.980469 C 465.011719 138.5625 464.574219 137.8125 463.617188 137.8125 C 462.910156 137.8125 462.304688 138.125 461.660156 138.8125 C 461.449219 138.144531 461.035156 137.8125 460.386719 137.8125 C 459.847656 137.8125 459.347656 137.917969 458.554688 138.730469 L 458.535156 138.730469 L 458.535156 137.855469 L 458.429688 137.8125 C 457.824219 138.042969 457.429688 138.167969 456.761719 138.355469 L 456.761719 138.5625 C 456.910156 138.519531 457.011719 138.5 457.136719 138.5 C 457.449219 138.5 457.574219 138.707031 457.574219 139.292969 L 457.574219 142.269531 C 457.574219 142.980469 457.386719 143.144531 456.722656 143.144531 L 456.722656 143.332031 L 459.386719 143.332031 L 459.386719 143.144531 C 458.761719 143.125 458.574219 143 458.574219 142.5 L 458.574219 139.167969 C 458.574219 139.125 458.636719 139.042969 458.722656 138.957031 C 458.972656 138.667969 459.554688 138.4375 459.992188 138.4375 C 460.511719 138.4375 460.785156 138.9375 460.785156 139.769531 L 460.785156 142.292969 C 460.785156 143.042969 460.660156 143.105469 459.972656 143.144531 L 459.972656 143.332031 L 462.660156 143.332031 L 462.660156 143.144531 C 461.972656 143.144531 461.785156 142.980469 461.785156 142.1875 L 461.785156 139.167969 C 462.160156 138.644531 462.511719 138.4375 463.074219 138.4375 C 463.761719 138.4375 463.992188 138.832031 463.992188 139.792969 L 463.992188 142.25 C 463.992188 142.957031 463.886719 143.082031 463.222656 143.144531 L 463.222656 143.332031 Z M 465.824219 143.332031 "/>
<path style=" stroke:none;fill-rule:nonzero;fill:rgb(0%,0%,0%);fill-opacity:1;" d="M 428.089844 110.988281 C 428.089844 110.65625 427.796875 110.386719 427.464844 110.386719 C 427.132812 110.386719 426.859375 110.65625 426.859375 110.988281 C 426.859375 111.34375 427.132812 111.59375 427.464844 111.59375 C 427.820312 111.59375 428.089844 111.34375 428.089844 110.988281 Z M 428.070312 113.09375 L 428.007812 113.050781 C 427.296875 113.324219 426.839844 113.488281 426.132812 113.699219 L 426.132812 113.886719 L 426.195312 113.886719 C 426.402344 113.84375 426.570312 113.84375 426.671875 113.84375 C 426.964844 113.84375 427.070312 114.050781 427.070312 114.574219 L 427.070312 119.113281 C 427.070312 120.03125 427.027344 120.324219 426.902344 120.574219 C 426.820312 120.675781 426.652344 120.78125 426.484375 120.78125 C 426.296875 120.78125 426.195312 120.699219 425.984375 120.449219 C 425.777344 120.175781 425.609375 120.050781 425.402344 120.050781 C 425.132812 120.050781 424.921875 120.261719 424.921875 120.53125 C 424.921875 120.90625 425.382812 121.199219 426.027344 121.199219 C 427.359375 121.199219 428.070312 120.28125 428.070312 118.574219 Z M 428.070312 113.09375 "/>
<path style=" stroke:none;fill-rule:nonzero;fill:rgb(0%,0%,0%);fill-opacity:1;" d="M 432.882812 121.46875 L 432.78125 121.425781 C 432.507812 121.886719 432.34375 121.96875 432.007812 121.96875 L 430.132812 121.96875 L 431.445312 120.550781 C 432.15625 119.800781 432.46875 119.199219 432.46875 118.574219 C 432.46875 117.78125 431.90625 117.15625 430.988281 117.15625 C 430.007812 117.15625 429.507812 117.824219 429.34375 118.761719 L 429.507812 118.800781 C 429.820312 118.011719 430.09375 117.761719 430.675781 117.761719 C 431.363281 117.761719 431.78125 118.15625 431.78125 118.886719 C 431.78125 119.574219 431.507812 120.175781 430.738281 120.96875 L 429.320312 122.46875 L 429.320312 122.574219 L 432.445312 122.574219 Z M 432.882812 121.46875 "/>
<path style=" stroke:none;fill-rule:nonzero;fill:rgb(0%,0%,0%);fill-opacity:1;" d="M 428.089844 152.324219 C 428.089844 151.988281 427.796875 151.71875 427.464844 151.71875 C 427.132812 151.71875 426.859375 151.988281 426.859375 152.324219 C 426.859375 152.675781 427.132812 152.925781 427.464844 152.925781 C 427.820312 152.925781 428.089844 152.675781 428.089844 152.324219 Z M 428.070312 154.425781 L 428.007812 154.386719 C 427.296875 154.65625 426.839844 154.824219 426.132812 155.03125 L 426.132812 155.21875 L 426.195312 155.21875 C 426.402344 155.175781 426.570312 155.175781 426.671875 155.175781 C 426.964844 155.175781 427.070312 155.386719 427.070312 155.90625 L 427.070312 160.449219 C 427.070312 161.363281 427.027344 161.65625 426.902344 161.90625 C 426.820312 162.011719 426.652344 162.113281 426.484375 162.113281 C 426.296875 162.113281 426.195312 162.03125 425.984375 161.78125 C 425.777344 161.511719 425.609375 161.386719 425.402344 161.386719 C 425.132812 161.386719 424.921875 161.59375 424.921875 161.863281 C 424.921875 162.238281 425.382812 162.53125 426.027344 162.53125 C 427.359375 162.53125 428.070312 161.613281 428.070312 159.90625 Z M 428.070312 154.425781 "/>
<path style=" stroke:none;fill-rule:nonzero;fill:rgb(0%,0%,0%);fill-opacity:1;" d="M 429.570312 159.824219 C 429.90625 159.238281 430.28125 158.96875 430.78125 158.96875 C 431.300781 158.96875 431.632812 159.261719 431.632812 159.800781 C 431.632812 160.28125 431.382812 160.636719 430.988281 160.863281 C 430.820312 160.96875 430.613281 161.050781 430.320312 161.15625 L 430.320312 161.261719 C 430.78125 161.261719 430.945312 161.28125 431.132812 161.34375 C 431.675781 161.511719 431.96875 161.90625 431.96875 162.511719 C 431.96875 163.175781 431.507812 163.738281 430.925781 163.738281 C 430.695312 163.738281 430.53125 163.699219 430.238281 163.488281 C 430.007812 163.324219 429.882812 163.28125 429.738281 163.28125 C 429.570312 163.28125 429.425781 163.386719 429.425781 163.550781 C 429.425781 163.84375 429.738281 164.011719 430.320312 164.011719 C 431.03125 164.011719 431.78125 163.78125 432.175781 163.28125 C 432.40625 162.96875 432.550781 162.574219 432.550781 162.15625 C 432.550781 161.738281 432.40625 161.363281 432.195312 161.113281 C 432.03125 160.949219 431.882812 160.84375 431.53125 160.699219 C 432.050781 160.386719 432.257812 159.96875 432.257812 159.59375 C 432.257812 158.949219 431.757812 158.488281 431.03125 158.488281 C 430.195312 158.488281 429.675781 159.03125 429.445312 159.800781 Z M 429.570312 159.824219 "/>
<path style=" stroke:none;fill-rule:nonzero;fill:rgb(0%,0%,0%);fill-opacity:1;" d="M 428.089844 193.65625 C 428.089844 193.324219 427.796875 193.050781 427.464844 193.050781 C 427.132812 193.050781 426.859375 193.324219 426.859375 193.65625 C 426.859375 194.011719 427.132812 194.261719 427.464844 194.261719 C 427.820312 194.261719 428.089844 194.011719 428.089844 193.65625 Z M 428.070312 195.761719 L 428.007812 195.71875 C 427.296875 195.988281 426.839844 196.15625 426.132812 196.363281 L 426.132812 196.550781 L 426.195312 196.550781 C 426.402344 196.511719 426.570312 196.511719 426.671875 196.511719 C 426.964844 196.511719 427.070312 196.71875 427.070312 197.238281 L 427.070312 201.78125 C 427.070312 202.699219 427.027344 202.988281 426.902344 203.238281 C 426.820312 203.34375 426.652344 203.449219 426.484375 203.449219 C 426.296875 203.449219 426.195312 203.363281 425.984375 203.113281 C 425.777344 202.84375 425.609375 202.71875 425.402344 202.71875 C 425.132812 202.71875 424.921875 202.925781 424.921875 203.199219 C 424.921875 203.574219 425.382812 203.863281 426.027344 203.863281 C 427.359375 203.863281 428.070312 202.949219 428.070312 201.238281 Z M 428.070312 195.761719 "/>
<path style=" stroke:none;fill-rule:nonzero;fill:rgb(0%,0%,0%);fill-opacity:1;" d="M 432.882812 203.90625 L 432.882812 203.386719 L 432.050781 203.386719 L 432.050781 199.824219 L 431.695312 199.824219 L 429.195312 203.386719 L 429.195312 203.90625 L 431.425781 203.90625 L 431.425781 205.238281 L 432.050781 205.238281 L 432.050781 203.90625 Z M 431.425781 203.386719 L 429.507812 203.386719 L 431.425781 200.65625 Z M 431.425781 203.386719 "/>
<path style=" stroke:none;fill-rule:nonzero;fill:rgb(0%,0%,0%);fill-opacity:1;" d="M 327.03125 35.394531 L 326.96875 35.394531 C 326.425781 35.394531 326.28125 35.269531 326.28125 34.707031 L 326.28125 30.605469 L 324.386719 30.605469 L 324.386719 30.8125 C 325.113281 30.855469 325.28125 30.957031 325.28125 31.582031 L 325.28125 34.355469 C 325.28125 34.769531 325.199219 34.875 325.011719 35.042969 C 324.699219 35.3125 324.34375 35.417969 323.988281 35.417969 C 323.53125 35.417969 323.136719 35.019531 323.136719 34.480469 L 323.136719 30.605469 L 321.386719 30.605469 L 321.386719 30.769531 C 321.96875 30.8125 322.136719 30.980469 322.136719 31.5625 L 322.136719 34.582031 C 322.136719 35.5 322.675781 36.125 323.59375 36.125 C 324.03125 36.125 324.71875 35.894531 325.324219 35.082031 L 325.34375 35.082031 L 325.34375 36.0625 L 325.40625 36.105469 C 325.988281 35.875 326.425781 35.730469 327.03125 35.5625 Z M 327.03125 35.394531 "/>
<path style=" stroke:none;fill-rule:nonzero;fill:rgb(0%,0%,0%);fill-opacity:1;" d="M 330.425781 40 L 330.425781 39.875 C 329.824219 39.875 329.675781 39.730469 329.675781 39.394531 L 329.675781 34.625 L 329.59375 34.582031 L 328.175781 35.3125 L 328.175781 35.4375 L 328.386719 35.355469 C 328.53125 35.292969 328.65625 35.25 328.738281 35.25 C 328.90625 35.25 328.988281 35.375 328.988281 35.644531 L 328.988281 39.25 C 328.988281 39.6875 328.824219 39.855469 328.21875 39.875 L 328.21875 40 Z M 330.425781 40 "/>
<path style=" stroke:none;fill-rule:nonzero;fill:rgb(0%,0%,0%);fill-opacity:1;" d="M 333.59375 31.167969 C 333.59375 30.8125 333.28125 30.5 332.925781 30.5 C 332.53125 30.5 332.261719 30.769531 332.261719 31.167969 C 332.261719 31.519531 332.574219 31.832031 332.925781 31.832031 C 333.28125 31.832031 333.59375 31.519531 333.59375 31.167969 Z M 333.59375 35.480469 C 333.59375 35.105469 333.28125 34.792969 332.925781 34.792969 C 332.53125 34.792969 332.261719 35.082031 332.261719 35.480469 C 332.261719 35.832031 332.574219 36.125 332.925781 36.125 C 333.28125 36.125 333.59375 35.832031 333.59375 35.480469 Z M 333.59375 35.480469 "/>
<path style=" stroke:none;fill-rule:nonzero;fill:rgb(0%,0%,0%);fill-opacity:1;" d="M 339.785156 28.417969 C 339.785156 28.082031 339.511719 27.8125 339.160156 27.8125 C 338.824219 27.8125 338.554688 28.082031 338.554688 28.417969 C 338.554688 28.769531 338.824219 29.019531 339.160156 29.019531 C 339.511719 29.019531 339.785156 28.769531 339.785156 28.417969 Z M 340.660156 36 L 340.660156 35.8125 C 339.867188 35.75 339.761719 35.625 339.761719 34.75 L 339.761719 30.519531 L 339.722656 30.480469 L 337.867188 31.144531 L 337.867188 31.332031 C 338.074219 31.269531 338.261719 31.269531 338.367188 31.269531 C 338.660156 31.269531 338.761719 31.457031 338.761719 32.019531 L 338.761719 34.75 C 338.761719 35.667969 338.636719 35.769531 337.804688 35.8125 L 337.804688 36 Z M 340.660156 36 "/>
<path style=" stroke:none;fill-rule:nonzero;fill:rgb(0%,0%,0%);fill-opacity:1;" d="M 351.410156 33.019531 L 351.410156 32.894531 L 344.621094 29.582031 L 344.621094 30.375 L 349.808594 32.957031 L 344.621094 35.542969 L 344.621094 36.292969 Z M 351.410156 33.019531 "/>
<path style=" stroke:none;fill-rule:nonzero;fill:rgb(0%,0%,0%);fill-opacity:1;" d="M 356.007812 39.605469 L 355.964844 39.605469 C 355.589844 39.605469 355.507812 39.519531 355.507812 39.144531 L 355.507812 36.394531 L 354.234375 36.394531 L 354.234375 36.542969 C 354.714844 36.5625 354.839844 36.625 354.839844 37.0625 L 354.839844 38.894531 C 354.839844 39.1875 354.777344 39.25 354.652344 39.375 C 354.445312 39.542969 354.214844 39.625 353.984375 39.625 C 353.671875 39.625 353.421875 39.355469 353.421875 38.980469 L 353.421875 36.394531 L 352.234375 36.394531 L 352.234375 36.519531 C 352.632812 36.542969 352.734375 36.644531 352.734375 37.042969 L 352.734375 39.0625 C 352.734375 39.667969 353.109375 40.082031 353.714844 40.082031 C 354.007812 40.082031 354.464844 39.9375 354.859375 39.394531 L 354.882812 39.394531 L 354.882812 40.042969 L 354.921875 40.0625 C 355.320312 39.917969 355.609375 39.832031 356.007812 39.707031 Z M 356.007812 39.605469 "/>
<path style=" stroke:none;fill-rule:nonzero;fill:rgb(0%,0%,0%);fill-opacity:1;" d="M 359.320312 40 L 359.320312 39.875 C 358.714844 39.875 358.570312 39.730469 358.570312 39.394531 L 358.570312 34.625 L 358.484375 34.582031 L 357.070312 35.3125 L 357.070312 35.4375 L 357.277344 35.355469 C 357.421875 35.292969 357.546875 35.25 357.632812 35.25 C 357.796875 35.25 357.882812 35.375 357.882812 35.644531 L 357.882812 39.25 C 357.882812 39.6875 357.714844 39.855469 357.109375 39.875 L 357.109375 40 Z M 359.320312 40 "/>
<path style=" stroke:none;fill-rule:nonzero;fill:rgb(0%,0%,0%);fill-opacity:1;" d="M 366.507812 28.417969 C 366.507812 28.082031 366.214844 27.8125 365.882812 27.8125 C 365.546875 27.8125 365.277344 28.082031 365.277344 28.417969 C 365.277344 28.769531 365.546875 29.019531 365.882812 29.019531 C 366.234375 29.019531 366.507812 28.769531 366.507812 28.417969 Z M 366.484375 30.519531 L 366.421875 30.480469 C 365.714844 30.75 365.257812 30.917969 364.546875 31.125 L 364.546875 31.3125 L 364.609375 31.3125 C 364.820312 31.269531 364.984375 31.269531 365.089844 31.269531 C 365.382812 31.269531 365.484375 31.480469 365.484375 32 L 365.484375 36.542969 C 365.484375 37.457031 365.445312 37.75 365.320312 38 C 365.234375 38.105469 365.070312 38.207031 364.902344 38.207031 C 364.714844 38.207031 364.609375 38.125 364.402344 37.875 C 364.195312 37.605469 364.027344 37.480469 363.820312 37.480469 C 363.546875 37.480469 363.339844 37.6875 363.339844 37.957031 C 363.339844 38.332031 363.796875 38.625 364.445312 38.625 C 365.777344 38.625 366.484375 37.707031 366.484375 36 Z M 366.484375 30.519531 "/>
<path style=" stroke:none;fill-rule:nonzero;fill:rgb(0%,0%,0%);fill-opacity:1;" d="M 68.832031 31.617188 C 68.832031 31.285156 68.5625 31.011719 68.207031 31.011719 C 67.875 31.011719 67.605469 31.285156 67.605469 31.617188 C 67.605469 31.972656 67.875 32.222656 68.207031 32.222656 C 68.5625 32.222656 68.832031 31.972656 68.832031 31.617188 Z M 69.707031 39.199219 L 69.707031 39.011719 C 68.917969 38.949219 68.8125 38.824219 68.8125 37.949219 L 68.8125 33.722656 L 68.769531 33.679688 L 66.917969 34.347656 L 66.917969 34.535156 C 67.125 34.472656 67.3125 34.472656 67.417969 34.472656 C 67.707031 34.472656 67.8125 34.660156 67.8125 35.222656 L 67.8125 37.949219 C 67.8125 38.867188 67.6875 38.972656 66.855469 39.011719 L 66.855469 39.199219 Z M 69.707031 39.199219 "/>
<path style=" stroke:none;fill-rule:nonzero;fill:rgb(0%,0%,0%);fill-opacity:1;" d="M 73.148438 43.199219 L 73.148438 43.074219 C 72.542969 43.074219 72.398438 42.929688 72.398438 42.597656 L 72.398438 37.824219 L 72.316406 37.785156 L 70.898438 38.511719 L 70.898438 38.636719 L 71.105469 38.554688 C 71.253906 38.492188 71.378906 38.449219 71.460938 38.449219 C 71.628906 38.449219 71.710938 38.574219 71.710938 38.847656 L 71.710938 42.449219 C 71.710938 42.886719 71.542969 43.054688 70.941406 43.074219 L 70.941406 43.199219 Z M 73.148438 43.199219 "/>
<path style=" stroke:none;fill-rule:nonzero;fill:rgb(0%,0%,0%);fill-opacity:1;" d="M 109.371094 31.617188 C 109.371094 31.285156 109.101562 31.011719 108.746094 31.011719 C 108.414062 31.011719 108.140625 31.285156 108.140625 31.617188 C 108.140625 31.972656 108.414062 32.222656 108.746094 32.222656 C 109.101562 32.222656 109.371094 31.972656 109.371094 31.617188 Z M 110.246094 39.199219 L 110.246094 39.011719 C 109.453125 38.949219 109.351562 38.824219 109.351562 37.949219 L 109.351562 33.722656 L 109.308594 33.679688 L 107.453125 34.347656 L 107.453125 34.535156 C 107.664062 34.472656 107.851562 34.472656 107.953125 34.472656 C 108.246094 34.472656 108.351562 34.660156 108.351562 35.222656 L 108.351562 37.949219 C 108.351562 38.867188 108.226562 38.972656 107.390625 39.011719 L 107.390625 39.199219 Z M 110.246094 39.199219 "/>
<path style=" stroke:none;fill-rule:nonzero;fill:rgb(0%,0%,0%);fill-opacity:1;" d="M 114.332031 42.097656 L 114.226562 42.054688 C 113.957031 42.511719 113.789062 42.597656 113.457031 42.597656 L 111.582031 42.597656 L 112.894531 41.179688 C 113.601562 40.429688 113.914062 39.824219 113.914062 39.199219 C 113.914062 38.410156 113.351562 37.785156 112.4375 37.785156 C 111.457031 37.785156 110.957031 38.449219 110.789062 39.386719 L 110.957031 39.429688 C 111.269531 38.636719 111.539062 38.386719 112.125 38.386719 C 112.8125 38.386719 113.226562 38.785156 113.226562 39.511719 C 113.226562 40.199219 112.957031 40.804688 112.1875 41.597656 L 110.769531 43.097656 L 110.769531 43.199219 L 113.894531 43.199219 Z M 114.332031 42.097656 "/>
<path style=" stroke:none;fill-rule:nonzero;fill:rgb(0%,0%,0%);fill-opacity:1;" d="M 148.835938 31.617188 C 148.835938 31.285156 148.566406 31.011719 148.210938 31.011719 C 147.878906 31.011719 147.605469 31.285156 147.605469 31.617188 C 147.605469 31.972656 147.878906 32.222656 148.210938 32.222656 C 148.566406 32.222656 148.835938 31.972656 148.835938 31.617188 Z M 149.710938 39.199219 L 149.710938 39.011719 C 148.917969 38.949219 148.816406 38.824219 148.816406 37.949219 L 148.816406 33.722656 L 148.773438 33.679688 L 146.917969 34.347656 L 146.917969 34.535156 C 147.128906 34.472656 147.316406 34.472656 147.417969 34.472656 C 147.710938 34.472656 147.816406 34.660156 147.816406 35.222656 L 147.816406 37.949219 C 147.816406 38.867188 147.691406 38.972656 146.855469 39.011719 L 146.855469 39.199219 Z M 149.710938 39.199219 "/>
<path style=" stroke:none;fill-rule:nonzero;fill:rgb(0%,0%,0%);fill-opacity:1;" d="M 150.484375 39.117188 C 150.816406 38.535156 151.191406 38.261719 151.691406 38.261719 C 152.214844 38.261719 152.546875 38.554688 152.546875 39.097656 C 152.546875 39.574219 152.296875 39.929688 151.902344 40.160156 C 151.734375 40.261719 151.527344 40.347656 151.234375 40.449219 L 151.234375 40.554688 C 151.691406 40.554688 151.859375 40.574219 152.046875 40.636719 C 152.589844 40.804688 152.878906 41.199219 152.878906 41.804688 C 152.878906 42.472656 152.421875 43.035156 151.839844 43.035156 C 151.609375 43.035156 151.441406 42.992188 151.152344 42.785156 C 150.921875 42.617188 150.796875 42.574219 150.652344 42.574219 C 150.484375 42.574219 150.339844 42.679688 150.339844 42.847656 C 150.339844 43.136719 150.652344 43.304688 151.234375 43.304688 C 151.941406 43.304688 152.691406 43.074219 153.089844 42.574219 C 153.316406 42.261719 153.464844 41.867188 153.464844 41.449219 C 153.464844 41.035156 153.316406 40.660156 153.109375 40.410156 C 152.941406 40.242188 152.796875 40.136719 152.441406 39.992188 C 152.964844 39.679688 153.171875 39.261719 153.171875 38.886719 C 153.171875 38.242188 152.671875 37.785156 151.941406 37.785156 C 151.109375 37.785156 150.589844 38.324219 150.359375 39.097656 Z M 150.484375 39.117188 "/>
<path style=" stroke:none;fill-rule:nonzero;fill:rgb(0%,0%,0%);fill-opacity:1;" d="M 188.300781 31.617188 C 188.300781 31.285156 188.027344 31.011719 187.675781 31.011719 C 187.339844 31.011719 187.070312 31.285156 187.070312 31.617188 C 187.070312 31.972656 187.339844 32.222656 187.675781 32.222656 C 188.027344 32.222656 188.300781 31.972656 188.300781 31.617188 Z M 189.175781 39.199219 L 189.175781 39.011719 C 188.382812 38.949219 188.277344 38.824219 188.277344 37.949219 L 188.277344 33.722656 L 188.238281 33.679688 L 186.382812 34.347656 L 186.382812 34.535156 C 186.589844 34.472656 186.777344 34.472656 186.882812 34.472656 C 187.175781 34.472656 187.277344 34.660156 187.277344 35.222656 L 187.277344 37.949219 C 187.277344 38.867188 187.152344 38.972656 186.320312 39.011719 L 186.320312 39.199219 Z M 189.175781 39.199219 "/>
<path style=" stroke:none;fill-rule:nonzero;fill:rgb(0%,0%,0%);fill-opacity:1;" d="M 193.261719 41.867188 L 193.261719 41.347656 L 192.425781 41.347656 L 192.425781 37.785156 L 192.074219 37.785156 L 189.574219 41.347656 L 189.574219 41.867188 L 191.800781 41.867188 L 191.800781 43.199219 L 192.425781 43.199219 L 192.425781 41.867188 Z M 191.800781 41.347656 L 189.886719 41.347656 L 191.800781 38.617188 Z M 191.800781 41.347656 "/>
<path style=" stroke:none;fill-rule:nonzero;fill:rgb(0%,0%,0%);fill-opacity:1;" d="M 428.316406 74.550781 C 428.316406 74.214844 428.023438 73.945312 427.691406 73.945312 C 427.359375 73.945312 427.085938 74.214844 427.085938 74.550781 C 427.085938 74.902344 427.359375 75.152344 427.691406 75.152344 C 428.046875 75.152344 428.316406 74.902344 428.316406 74.550781 Z M 428.296875 76.652344 L 428.234375 76.613281 C 427.523438 76.882812 427.066406 77.050781 426.359375 77.257812 L 426.359375 77.445312 L 426.421875 77.445312 C 426.628906 77.402344 426.796875 77.402344 426.898438 77.402344 C 427.191406 77.402344 427.296875 77.613281 427.296875 78.132812 L 427.296875 82.675781 C 427.296875 83.589844 427.253906 83.882812 427.128906 84.132812 C 427.046875 84.238281 426.878906 84.339844 426.710938 84.339844 C 426.523438 84.339844 426.421875 84.257812 426.210938 84.007812 C 426.003906 83.738281 425.835938 83.613281 425.628906 83.613281 C 425.359375 83.613281 425.148438 83.820312 425.148438 84.089844 C 425.148438 84.464844 425.609375 84.757812 426.253906 84.757812 C 427.585938 84.757812 428.296875 83.839844 428.296875 82.132812 Z M 428.296875 76.652344 "/>
<path style=" stroke:none;fill-rule:nonzero;fill:rgb(0%,0%,0%);fill-opacity:1;" d="M 432.464844 86.132812 L 432.464844 86.007812 C 431.859375 86.007812 431.714844 85.863281 431.714844 85.527344 L 431.714844 80.757812 L 431.632812 80.714844 L 430.214844 81.445312 L 430.214844 81.570312 L 430.421875 81.488281 C 430.570312 81.425781 430.695312 81.382812 430.777344 81.382812 C 430.945312 81.382812 431.027344 81.507812 431.027344 81.777344 L 431.027344 85.382812 C 431.027344 85.820312 430.859375 85.988281 430.257812 86.007812 L 430.257812 86.132812 Z M 432.464844 86.132812 "/>
<path style=" stroke:none;fill-rule:nonzero;fill:rgb(0%,0%,0%);fill-opacity:1;" d="M 41.285156 63.644531 L 41.222656 63.644531 C 40.679688 63.644531 40.535156 63.519531 40.535156 62.957031 L 40.535156 58.855469 L 38.636719 58.855469 L 38.636719 59.0625 C 39.367188 59.105469 39.535156 59.207031 39.535156 59.832031 L 39.535156 62.605469 C 39.535156 63.019531 39.449219 63.125 39.261719 63.292969 C 38.949219 63.5625 38.597656 63.667969 38.242188 63.667969 C 37.785156 63.667969 37.386719 63.269531 37.386719 62.730469 L 37.386719 58.855469 L 35.636719 58.855469 L 35.636719 59.019531 C 36.222656 59.0625 36.386719 59.230469 36.386719 59.8125 L 36.386719 62.832031 C 36.386719 63.75 36.929688 64.375 37.847656 64.375 C 38.285156 64.375 38.972656 64.144531 39.574219 63.332031 L 39.597656 63.332031 L 39.597656 64.3125 L 39.660156 64.355469 C 40.242188 64.125 40.679688 63.980469 41.285156 63.8125 Z M 41.285156 63.644531 "/>
<path style=" stroke:none;fill-rule:nonzero;fill:rgb(0%,0%,0%);fill-opacity:1;" d="M 44.679688 68.25 L 44.679688 68.125 C 44.074219 68.125 43.929688 67.980469 43.929688 67.644531 L 43.929688 62.875 L 43.847656 62.832031 L 42.429688 63.5625 L 42.429688 63.6875 L 42.636719 63.605469 C 42.785156 63.542969 42.910156 63.5 42.992188 63.5 C 43.160156 63.5 43.242188 63.625 43.242188 63.894531 L 43.242188 67.5 C 43.242188 67.9375 43.074219 68.105469 42.472656 68.125 L 42.472656 68.25 Z M 44.679688 68.25 "/>
<path style=" stroke:none;fill-rule:nonzero;fill:rgb(0%,0%,0%);fill-opacity:1;" d="M 41.285156 104.980469 L 41.222656 104.980469 C 40.679688 104.980469 40.535156 104.855469 40.535156 104.292969 L 40.535156 100.1875 L 38.636719 100.1875 L 38.636719 100.394531 C 39.367188 100.4375 39.535156 100.542969 39.535156 101.167969 L 39.535156 103.9375 C 39.535156 104.355469 39.449219 104.457031 39.261719 104.625 C 38.949219 104.894531 38.597656 105 38.242188 105 C 37.785156 105 37.386719 104.605469 37.386719 104.0625 L 37.386719 100.1875 L 35.636719 100.1875 L 35.636719 100.355469 C 36.222656 100.394531 36.386719 100.5625 36.386719 101.144531 L 36.386719 104.167969 C 36.386719 105.082031 36.929688 105.707031 37.847656 105.707031 C 38.285156 105.707031 38.972656 105.480469 39.574219 104.667969 L 39.597656 104.667969 L 39.597656 105.644531 L 39.660156 105.6875 C 40.242188 105.457031 40.679688 105.3125 41.285156 105.144531 Z M 41.285156 104.980469 "/>
<path style=" stroke:none;fill-rule:nonzero;fill:rgb(0%,0%,0%);fill-opacity:1;" d="M 45.324219 108.480469 L 45.222656 108.4375 C 44.949219 108.894531 44.785156 108.980469 44.449219 108.980469 L 42.574219 108.980469 L 43.886719 107.5625 C 44.597656 106.8125 44.910156 106.207031 44.910156 105.582031 C 44.910156 104.792969 44.347656 104.167969 43.429688 104.167969 C 42.449219 104.167969 41.949219 104.832031 41.785156 105.769531 L 41.949219 105.8125 C 42.261719 105.019531 42.535156 104.769531 43.117188 104.769531 C 43.804688 104.769531 44.222656 105.167969 44.222656 105.894531 C 44.222656 106.582031 43.949219 107.1875 43.179688 107.980469 L 41.761719 109.480469 L 41.761719 109.582031 L 44.886719 109.582031 Z M 45.324219 108.480469 "/>
<path style=" stroke:none;fill-rule:nonzero;fill:rgb(0%,0%,0%);fill-opacity:1;" d="M 41.285156 146.3125 L 41.222656 146.3125 C 40.679688 146.3125 40.535156 146.1875 40.535156 145.625 L 40.535156 141.519531 L 38.636719 141.519531 L 38.636719 141.730469 C 39.367188 141.769531 39.535156 141.875 39.535156 142.5 L 39.535156 145.269531 C 39.535156 145.6875 39.449219 145.792969 39.261719 145.957031 C 38.949219 146.230469 38.597656 146.332031 38.242188 146.332031 C 37.785156 146.332031 37.386719 145.9375 37.386719 145.394531 L 37.386719 141.519531 L 35.636719 141.519531 L 35.636719 141.6875 C 36.222656 141.730469 36.386719 141.894531 36.386719 142.480469 L 36.386719 145.5 C 36.386719 146.417969 36.929688 147.042969 37.847656 147.042969 C 38.285156 147.042969 38.972656 146.8125 39.574219 146 L 39.597656 146 L 39.597656 146.980469 L 39.660156 147.019531 C 40.242188 146.792969 40.679688 146.644531 41.285156 146.480469 Z M 41.285156 146.3125 "/>
<path style=" stroke:none;fill-rule:nonzero;fill:rgb(0%,0%,0%);fill-opacity:1;" d="M 42.011719 146.832031 C 42.347656 146.25 42.722656 145.980469 43.222656 145.980469 C 43.742188 145.980469 44.074219 146.269531 44.074219 146.8125 C 44.074219 147.292969 43.824219 147.644531 43.429688 147.875 C 43.261719 147.980469 43.054688 148.0625 42.761719 148.167969 L 42.761719 148.269531 C 43.222656 148.269531 43.386719 148.292969 43.574219 148.355469 C 44.117188 148.519531 44.410156 148.917969 44.410156 149.519531 C 44.410156 150.1875 43.949219 150.75 43.367188 150.75 C 43.136719 150.75 42.972656 150.707031 42.679688 150.5 C 42.449219 150.332031 42.324219 150.292969 42.179688 150.292969 C 42.011719 150.292969 41.867188 150.394531 41.867188 150.5625 C 41.867188 150.855469 42.179688 151.019531 42.761719 151.019531 C 43.472656 151.019531 44.222656 150.792969 44.617188 150.292969 C 44.847656 149.980469 44.992188 149.582031 44.992188 149.167969 C 44.992188 148.75 44.847656 148.375 44.636719 148.125 C 44.472656 147.957031 44.324219 147.855469 43.972656 147.707031 C 44.492188 147.394531 44.699219 146.980469 44.699219 146.605469 C 44.699219 145.957031 44.199219 145.5 43.472656 145.5 C 42.636719 145.5 42.117188 146.042969 41.886719 146.8125 Z M 42.011719 146.832031 "/>
<path style=" stroke:none;fill-rule:nonzero;fill:rgb(0%,0%,0%);fill-opacity:1;" d="M 41.285156 183.378906 L 41.222656 183.378906 C 40.679688 183.378906 40.535156 183.253906 40.535156 182.691406 L 40.535156 178.585938 L 38.636719 178.585938 L 38.636719 178.796875 C 39.367188 178.835938 39.535156 178.941406 39.535156 179.566406 L 39.535156 182.335938 C 39.535156 182.753906 39.449219 182.859375 39.261719 183.023438 C 38.949219 183.296875 38.597656 183.398438 38.242188 183.398438 C 37.785156 183.398438 37.386719 183.003906 37.386719 182.460938 L 37.386719 178.585938 L 35.636719 178.585938 L 35.636719 178.753906 C 36.222656 178.796875 36.386719 178.960938 36.386719 179.546875 L 36.386719 182.566406 C 36.386719 183.484375 36.929688 184.109375 37.847656 184.109375 C 38.285156 184.109375 38.972656 183.878906 39.574219 183.066406 L 39.597656 183.066406 L 39.597656 184.046875 L 39.660156 184.085938 C 40.242188 183.859375 40.679688 183.710938 41.285156 183.546875 Z M 41.285156 183.378906 "/>
<path style=" stroke:none;fill-rule:nonzero;fill:rgb(0%,0%,0%);fill-opacity:1;" d="M 45.324219 186.648438 L 45.324219 186.128906 L 44.492188 186.128906 L 44.492188 182.566406 L 44.136719 182.566406 L 41.636719 186.128906 L 41.636719 186.648438 L 43.867188 186.648438 L 43.867188 187.984375 L 44.492188 187.984375 L 44.492188 186.648438 Z M 43.867188 186.128906 L 41.949219 186.128906 L 43.867188 183.398438 Z M 43.867188 186.128906 "/>
<path style=" stroke:none;fill-rule:nonzero;fill:rgb(0%,0%,0%);fill-opacity:1;" d="M 41.285156 224.445312 L 41.222656 224.445312 C 40.679688 224.445312 40.535156 224.320312 40.535156 223.757812 L 40.535156 219.652344 L 38.636719 219.652344 L 38.636719 219.863281 C 39.367188 219.902344 39.535156 220.007812 39.535156 220.632812 L 39.535156 223.402344 C 39.535156 223.820312 39.449219 223.925781 39.261719 224.089844 C 38.949219 224.363281 38.597656 224.464844 38.242188 224.464844 C 37.785156 224.464844 37.386719 224.070312 37.386719 223.527344 L 37.386719 219.652344 L 35.636719 219.652344 L 35.636719 219.820312 C 36.222656 219.863281 36.386719 220.027344 36.386719 220.613281 L 36.386719 223.632812 C 36.386719 224.550781 36.929688 225.175781 37.847656 225.175781 C 38.285156 225.175781 38.972656 224.945312 39.574219 224.132812 L 39.597656 224.132812 L 39.597656 225.113281 L 39.660156 225.152344 C 40.242188 224.925781 40.679688 224.777344 41.285156 224.613281 Z M 41.285156 224.445312 "/>
<path style=" stroke:none;fill-rule:nonzero;fill:rgb(0%,0%,0%);fill-opacity:1;" d="M 45.035156 223.589844 L 44.972656 223.550781 C 44.847656 223.714844 44.761719 223.757812 44.574219 223.757812 L 42.929688 223.757812 L 42.054688 225.652344 C 42.054688 225.652344 42.054688 225.675781 42.054688 225.695312 C 42.054688 225.738281 42.074219 225.757812 42.136719 225.757812 C 42.910156 225.757812 43.472656 226.007812 43.847656 226.320312 C 44.199219 226.589844 44.386719 227.007812 44.386719 227.507812 C 44.386719 228.195312 43.867188 228.863281 43.304688 228.863281 C 43.136719 228.863281 42.949219 228.800781 42.742188 228.613281 C 42.472656 228.402344 42.324219 228.363281 42.136719 228.363281 C 41.910156 228.363281 41.785156 228.464844 41.785156 228.675781 C 41.785156 228.964844 42.199219 229.152344 42.804688 229.152344 C 43.347656 229.152344 43.785156 229.050781 44.160156 228.777344 C 44.699219 228.363281 44.949219 227.882812 44.949219 227.113281 C 44.949219 226.675781 44.867188 226.382812 44.660156 226.089844 C 44.199219 225.464844 43.804688 225.277344 42.660156 225.070312 L 42.992188 224.382812 L 44.535156 224.382812 C 44.660156 224.382812 44.722656 224.339844 44.742188 224.277344 Z M 45.035156 223.589844 "/>
<path style="fill:none;stroke-width:1;stroke-linecap:round;stroke-linejoin:round;stroke:rgb(0%,0%,0%);stroke-opacity:1;stroke-miterlimit:10;" d="M 191 128.500977 L 210.87207 128.257812 " transform="matrix(1.333333,0,0,1.333333,-34.666667,-26.666667)"/>
<path style="fill-rule:nonzero;fill:rgb(0%,0%,0%);fill-opacity:1;stroke-width:1;stroke-linecap:butt;stroke-linejoin:miter;stroke:rgb(0%,0%,0%);stroke-opacity:1;stroke-miterlimit:10;" d="M 214.871094 128.210938 L 210.851562 126.757812 L 210.886719 129.757812 Z M 214.871094 128.210938 " transform="matrix(1.333333,0,0,1.333333,-34.666667,-26.666667)"/>
<path style=" stroke:none;fill-rule:nonzero;fill:rgb(0%,0%,0%);fill-opacity:1;" d="M 282.433594 49.75 C 282.433594 49.417969 282.164062 49.144531 281.808594 49.144531 C 281.476562 49.144531 281.203125 49.417969 281.203125 49.75 C 281.203125 50.105469 281.476562 50.355469 281.808594 50.355469 C 282.164062 50.355469 282.433594 50.105469 282.433594 49.75 Z M 283.308594 57.332031 L 283.308594 57.144531 C 282.515625 57.082031 282.414062 56.957031 282.414062 56.082031 L 282.414062 51.855469 L 282.371094 51.8125 L 280.515625 52.480469 L 280.515625 52.667969 C 280.726562 52.605469 280.914062 52.605469 281.015625 52.605469 C 281.308594 52.605469 281.414062 52.792969 281.414062 53.355469 L 281.414062 56.082031 C 281.414062 57 281.289062 57.105469 280.453125 57.144531 L 280.453125 57.332031 Z M 283.308594 57.332031 "/>
<path style=" stroke:none;fill-rule:nonzero;fill:rgb(0%,0%,0%);fill-opacity:1;" d="M 286.75 61.332031 L 286.75 61.207031 C 286.144531 61.207031 286 61.0625 286 60.730469 L 286 55.957031 L 285.914062 55.917969 L 284.5 56.644531 L 284.5 56.769531 L 284.707031 56.6875 C 284.851562 56.625 284.976562 56.582031 285.0625 56.582031 C 285.226562 56.582031 285.3125 56.707031 285.3125 56.980469 L 285.3125 60.582031 C 285.3125 61.019531 285.144531 61.1875 284.539062 61.207031 L 284.539062 61.332031 Z M 286.75 61.332031 "/>
<path style=" stroke:none;fill-rule:nonzero;fill:rgb(0%,0%,0%);fill-opacity:1;" d="M 322.972656 49.75 C 322.972656 49.417969 322.699219 49.144531 322.347656 49.144531 C 322.011719 49.144531 321.742188 49.417969 321.742188 49.75 C 321.742188 50.105469 322.011719 50.355469 322.347656 50.355469 C 322.699219 50.355469 322.972656 50.105469 322.972656 49.75 Z M 323.847656 57.332031 L 323.847656 57.144531 C 323.054688 57.082031 322.949219 56.957031 322.949219 56.082031 L 322.949219 51.855469 L 322.910156 51.8125 L 321.054688 52.480469 L 321.054688 52.667969 C 321.261719 52.605469 321.449219 52.605469 321.554688 52.605469 C 321.847656 52.605469 321.949219 52.792969 321.949219 53.355469 L 321.949219 56.082031 C 321.949219 57 321.824219 57.105469 320.992188 57.144531 L 320.992188 57.332031 Z M 323.847656 57.332031 "/>
<path style=" stroke:none;fill-rule:nonzero;fill:rgb(0%,0%,0%);fill-opacity:1;" d="M 327.933594 60.230469 L 327.828125 60.1875 C 327.558594 60.644531 327.390625 60.730469 327.058594 60.730469 L 325.183594 60.730469 L 326.496094 59.3125 C 327.203125 58.5625 327.515625 57.957031 327.515625 57.332031 C 327.515625 56.542969 326.953125 55.917969 326.035156 55.917969 C 325.058594 55.917969 324.558594 56.582031 324.390625 57.519531 L 324.558594 57.5625 C 324.871094 56.769531 325.140625 56.519531 325.722656 56.519531 C 326.410156 56.519531 326.828125 56.917969 326.828125 57.644531 C 326.828125 58.332031 326.558594 58.9375 325.785156 59.730469 L 324.371094 61.230469 L 324.371094 61.332031 L 327.496094 61.332031 Z M 327.933594 60.230469 "/>
<path style=" stroke:none;fill-rule:nonzero;fill:rgb(0%,0%,0%);fill-opacity:1;" d="M 362.4375 49.75 C 362.4375 49.417969 362.164062 49.144531 361.8125 49.144531 C 361.476562 49.144531 361.207031 49.417969 361.207031 49.75 C 361.207031 50.105469 361.476562 50.355469 361.8125 50.355469 C 362.164062 50.355469 362.4375 50.105469 362.4375 49.75 Z M 363.3125 57.332031 L 363.3125 57.144531 C 362.519531 57.082031 362.414062 56.957031 362.414062 56.082031 L 362.414062 51.855469 L 362.375 51.8125 L 360.519531 52.480469 L 360.519531 52.667969 C 360.726562 52.605469 360.914062 52.605469 361.019531 52.605469 C 361.3125 52.605469 361.414062 52.792969 361.414062 53.355469 L 361.414062 56.082031 C 361.414062 57 361.289062 57.105469 360.457031 57.144531 L 360.457031 57.332031 Z M 363.3125 57.332031 "/>
<path style=" stroke:none;fill-rule:nonzero;fill:rgb(0%,0%,0%);fill-opacity:1;" d="M 364.085938 57.25 C 364.417969 56.667969 364.792969 56.394531 365.292969 56.394531 C 365.8125 56.394531 366.148438 56.6875 366.148438 57.230469 C 366.148438 57.707031 365.898438 58.0625 365.5 58.292969 C 365.335938 58.394531 365.125 58.480469 364.835938 58.582031 L 364.835938 58.6875 C 365.292969 58.6875 365.460938 58.707031 365.648438 58.769531 C 366.1875 58.9375 366.480469 59.332031 366.480469 59.9375 C 366.480469 60.605469 366.023438 61.167969 365.4375 61.167969 C 365.210938 61.167969 365.042969 61.125 364.75 60.917969 C 364.523438 60.75 364.398438 60.707031 364.25 60.707031 C 364.085938 60.707031 363.9375 60.8125 363.9375 60.980469 C 363.9375 61.269531 364.25 61.4375 364.835938 61.4375 C 365.542969 61.4375 366.292969 61.207031 366.6875 60.707031 C 366.917969 60.394531 367.0625 60 367.0625 59.582031 C 367.0625 59.167969 366.917969 58.792969 366.710938 58.542969 C 366.542969 58.375 366.398438 58.269531 366.042969 58.125 C 366.5625 57.8125 366.773438 57.394531 366.773438 57.019531 C 366.773438 56.375 366.273438 55.917969 365.542969 55.917969 C 364.710938 55.917969 364.1875 56.457031 363.960938 57.230469 Z M 364.085938 57.25 "/>
<path style=" stroke:none;fill-rule:nonzero;fill:rgb(0%,0%,0%);fill-opacity:1;" d="M 401.898438 49.75 C 401.898438 49.417969 401.628906 49.144531 401.273438 49.144531 C 400.941406 49.144531 400.671875 49.417969 400.671875 49.75 C 400.671875 50.105469 400.941406 50.355469 401.273438 50.355469 C 401.628906 50.355469 401.898438 50.105469 401.898438 49.75 Z M 402.773438 57.332031 L 402.773438 57.144531 C 401.984375 57.082031 401.878906 56.957031 401.878906 56.082031 L 401.878906 51.855469 L 401.835938 51.8125 L 399.984375 52.480469 L 399.984375 52.667969 C 400.191406 52.605469 400.378906 52.605469 400.484375 52.605469 C 400.773438 52.605469 400.878906 52.792969 400.878906 53.355469 L 400.878906 56.082031 C 400.878906 57 400.753906 57.105469 399.921875 57.144531 L 399.921875 57.332031 Z M 402.773438 57.332031 "/>
<path style=" stroke:none;fill-rule:nonzero;fill:rgb(0%,0%,0%);fill-opacity:1;" d="M 406.859375 60 L 406.859375 59.480469 L 406.027344 59.480469 L 406.027344 55.917969 L 405.671875 55.917969 L 403.171875 59.480469 L 403.171875 60 L 405.402344 60 L 405.402344 61.332031 L 406.027344 61.332031 L 406.027344 60 Z M 405.402344 59.480469 L 403.484375 59.480469 L 405.402344 56.75 Z M 405.402344 59.480469 "/>
</g>
</svg>
